solid OpenSCAD_Model
  facet normal -0.4713662504541404 -0.8818642283582614 -0.01137280417895943
    outer loop
      vertex 9.246113638240773 8.179957320952765 3
      vertex 8.916638045611776 8.378634256010036 1.25
      vertex 9.253767306888076 8.198434911602991 1.25
    endloop
  endfacet
  facet normal -0.6343522564092001 -0.7729604608993033 -0.011372804178958874
    outer loop
      vertex 8.905526640951384 8.362004863763985 3
      vertex 8.621141776686231 8.621141776686231 1.25
      vertex 8.916638045611776 8.378634256010036 1.25
    endloop
  endfacet
  facet normal -0.7729604608993033 -0.6343522564092001 -0.011372804178958874
    outer loop
      vertex 8.362004863763985 8.905526640951384 3
      vertex 8.378634256010036 8.916638045611776 1.25
      vertex 8.621141776686231 8.621141776686231 1.25
    endloop
  endfacet
  facet normal -0.2902659038393703 -0.9568784480765676 -0.011372804178958666
    outer loop
      vertex 9.615672065628228 8.067852997605636 3
      vertex 9.253767306888076 8.198434911602991 1.25
      vertex 9.61957387206855 8.0874687032137 1.25
    endloop
  endfacet
  facet normal -0.09801080132303709 -0.9951203656589104 -0.011372804178959743
    outer loop
      vertex 10 8.03 3
      vertex 9.61957387206855 8.0874687032137 1.25
      vertex 10 8.05 1.25
    endloop
  endfacet
  facet normal 0.09801080132303709 -0.9951203656589104 -0.011372804178958772
    outer loop
      vertex 10.384327934371772 8.067852997605636 3
      vertex 10 8.05 1.25
      vertex 10.38042612793145 8.0874687032137 1.25
    endloop
  endfacet
  facet normal 0.2902659038393703 -0.9568784480765676 -0.011372804178959403
    outer loop
      vertex 10.753886361759227 8.179957320952765 3
      vertex 10.38042612793145 8.0874687032137 1.25
      vertex 10.746232693111924 8.198434911602991 1.25
    endloop
  endfacet
  facet normal 0.4713662504541404 -0.8818642283582614 -0.01137280417895943
    outer loop
      vertex 10.753886361759227 8.179957320952765 3
      vertex 10.746232693111924 8.198434911602991 1.25
      vertex 11.083361954388224 8.378634256010036 1.25
    endloop
  endfacet
  facet normal -0.634352256409201 -0.7729604608993027 -0.011372804178958652
    outer loop
      vertex 8.905526640951384 8.362004863763985 3
      vertex 8.606999641062501 8.606999641062501 3
      vertex 8.621141776686231 8.621141776686231 1.25
    endloop
  endfacet
  facet normal -0.4713662504541426 -0.8818642283582602 -0.011372804178958862
    outer loop
      vertex 9.246113638240773 8.179957320952765 3
      vertex 8.905526640951384 8.362004863763985 3
      vertex 8.916638045611776 8.378634256010036 1.25
    endloop
  endfacet
  facet normal -0.7729604608993027 -0.634352256409201 -0.01137280417895866
    outer loop
      vertex 8.606999641062501 8.606999641062501 3
      vertex 8.362004863763985 8.905526640951384 3
      vertex 8.621141776686231 8.621141776686231 1.25
    endloop
  endfacet
  facet normal -0.29026590383936707 -0.9568784480765685 -0.0113728041789594
    outer loop
      vertex 9.615672065628228 8.067852997605636 3
      vertex 9.246113638240773 8.179957320952765 3
      vertex 9.253767306888076 8.198434911602991 1.25
    endloop
  endfacet
  facet normal -0.09801080132304148 -0.9951203656589098 -0.011372804178958775
    outer loop
      vertex 9.615672065628228 8.067852997605636 3
      vertex 9.61957387206855 8.0874687032137 1.25
      vertex 10 8.03 3
    endloop
  endfacet
  facet normal 0.09801080132304148 -0.9951203656589098 -0.011372804178959738
    outer loop
      vertex 10 8.03 3
      vertex 10 8.05 1.25
      vertex 10.384327934371772 8.067852997605636 3
    endloop
  endfacet
  facet normal 0.29026590383936707 -0.9568784480765685 -0.011372804178958668
    outer loop
      vertex 10.384327934371772 8.067852997605636 3
      vertex 10.38042612793145 8.0874687032137 1.25
      vertex 10.753886361759227 8.179957320952765 3
    endloop
  endfacet
  facet normal -0.8818642283582614 -0.4713662504541404 -0.01137280417895943
    outer loop
      vertex 8.179957320952765 9.246113638240773 3
      vertex 8.198434911602991 9.253767306888076 1.25
      vertex 8.378634256010036 8.916638045611776 1.25
    endloop
  endfacet
  facet normal -0.9568784480765676 -0.2902659038393703 -0.011372804178958666
    outer loop
      vertex 8.067852997605636 9.615672065628228 3
      vertex 8.0874687032137 9.61957387206855 1.25
      vertex 8.198434911602991 9.253767306888076 1.25
    endloop
  endfacet
  facet normal -0.9951203656589104 -0.09801080132303709 -0.011372804178959743
    outer loop
      vertex 8.03 10 3
      vertex 8.05 10 1.25
      vertex 8.0874687032137 9.61957387206855 1.25
    endloop
  endfacet
  facet normal -0.8818642283582602 -0.4713662504541426 -0.011372804178958872
    outer loop
      vertex 8.362004863763985 8.905526640951384 3
      vertex 8.179957320952765 9.246113638240773 3
      vertex 8.378634256010036 8.916638045611776 1.25
    endloop
  endfacet
  facet normal -0.9568784480765685 -0.29026590383936707 -0.011372804178959398
    outer loop
      vertex 8.179957320952765 9.246113638240773 3
      vertex 8.067852997605636 9.615672065628228 3
      vertex 8.198434911602991 9.253767306888076 1.25
    endloop
  endfacet
  facet normal 0 0 1
    outer loop
      vertex 9.246113638240773 8.179957320952765 3
      vertex 8.905526640951384 11.637995136236015 3
      vertex 8.905526640951384 8.362004863763985 3
    endloop
  endfacet
  facet normal -0.9951203656589098 -0.09801080132304148 -0.011372804178958775
    outer loop
      vertex 8.067852997605636 9.615672065628228 3
      vertex 8.03 10 3
      vertex 8.0874687032137 9.61957387206855 1.25
    endloop
  endfacet
  facet normal 0 0 1
    outer loop
      vertex 8.362004863763985 8.905526640951384 3
      vertex 8.179957320952765 10.753886361759227 3
      vertex 8.179957320952765 9.246113638240773 3
    endloop
  endfacet
  facet normal 0 0 1
    outer loop
      vertex 8.179957320952765 9.246113638240773 3
      vertex 8.067852997605636 10.384327934371772 3
      vertex 8.067852997605636 9.615672065628228 3
    endloop
  endfacet
  facet normal 0 0 1
    outer loop
      vertex 8.067852997605636 9.615672065628228 3
      vertex 8.067852997605636 10.384327934371772 3
      vertex 8.03 10 3
    endloop
  endfacet
  facet normal 0 0 1
    outer loop
      vertex 8.606999641062501 8.606999641062501 3
      vertex 8.362004863763985 11.094473359048616 3
      vertex 8.362004863763985 8.905526640951384 3
    endloop
  endfacet
  facet normal 0 0 1
    outer loop
      vertex 8.905526640951384 8.362004863763985 3
      vertex 8.606999641062501 11.393000358937499 3
      vertex 8.606999641062501 8.606999641062501 3
    endloop
  endfacet
  facet normal 0 0 1
    outer loop
      vertex 9.615672065628228 8.067852997605636 3
      vertex 9.246113638240773 11.820042679047235 3
      vertex 9.246113638240773 8.179957320952765 3
    endloop
  endfacet
  facet normal 0 0 1
    outer loop
      vertex 9.615672065628228 8.067852997605636 3
      vertex 10 8.03 3
      vertex 9.615672065628228 11.932147002394364 3
    endloop
  endfacet
  facet normal 0 0 1
    outer loop
      vertex 10 8.03 3
      vertex 10.384327934371772 8.067852997605636 3
      vertex 10 11.97 3
    endloop
  endfacet
  facet normal 0 0 1
    outer loop
      vertex 10.384327934371772 8.067852997605636 3
      vertex 10.753886361759227 8.179957320952765 3
      vertex 10.384327934371772 11.932147002394364 3
    endloop
  endfacet
  facet normal 0 0 1
    outer loop
      vertex 10.753886361759227 8.179957320952765 3
      vertex 11.094473359048616 8.362004863763985 3
      vertex 10.753886361759227 11.820042679047235 3
    endloop
  endfacet
  facet normal 0.6343522564092001 -0.7729604608993033 -0.011372804178958874
    outer loop
      vertex 11.094473359048616 8.362004863763985 3
      vertex 11.083361954388224 8.378634256010036 1.25
      vertex 11.378858223313769 8.621141776686231 1.25
    endloop
  endfacet
  facet normal 0.7729604608993033 -0.6343522564092001 -0.011372804178958874
    outer loop
      vertex 11.637995136236015 8.905526640951384 3
      vertex 11.378858223313769 8.621141776686231 1.25
      vertex 11.621365743989964 8.916638045611776 1.25
    endloop
  endfacet
  facet normal 0.4713662504541426 -0.8818642283582602 -0.011372804178958862
    outer loop
      vertex 10.753886361759227 8.179957320952765 3
      vertex 11.083361954388224 8.378634256010036 1.25
      vertex 11.094473359048616 8.362004863763985 3
    endloop
  endfacet
  facet normal 0.634352256409201 -0.7729604608993027 -0.011372804178958652
    outer loop
      vertex 11.094473359048616 8.362004863763985 3
      vertex 11.378858223313769 8.621141776686231 1.25
      vertex 11.393000358937499 8.606999641062501 3
    endloop
  endfacet
  facet normal 0.7729604608993027 -0.634352256409201 -0.01137280417895866
    outer loop
      vertex 11.393000358937499 8.606999641062501 3
      vertex 11.378858223313769 8.621141776686231 1.25
      vertex 11.637995136236015 8.905526640951384 3
    endloop
  endfacet
  facet normal 0.8818642283582614 -0.4713662504541404 -0.01137280417895943
    outer loop
      vertex 11.820042679047235 9.246113638240773 3
      vertex 11.621365743989964 8.916638045611776 1.25
      vertex 11.801565088397009 9.253767306888076 1.25
    endloop
  endfacet
  facet normal 0.9568784480765676 -0.2902659038393703 -0.011372804178958666
    outer loop
      vertex 11.932147002394364 9.615672065628228 3
      vertex 11.801565088397009 9.253767306888076 1.25
      vertex 11.9125312967863 9.61957387206855 1.25
    endloop
  endfacet
  facet normal 0.9951203656589104 -0.09801080132303709 -0.011372804178959743
    outer loop
      vertex 11.97 10 3
      vertex 11.9125312967863 9.61957387206855 1.25
      vertex 11.95 10 1.25
    endloop
  endfacet
  facet normal 0.8818642283582602 -0.4713662504541426 -0.011372804178958872
    outer loop
      vertex 11.637995136236015 8.905526640951384 3
      vertex 11.621365743989964 8.916638045611776 1.25
      vertex 11.820042679047235 9.246113638240773 3
    endloop
  endfacet
  facet normal 0.9568784480765685 -0.29026590383936707 -0.011372804178959398
    outer loop
      vertex 11.820042679047235 9.246113638240773 3
      vertex 11.801565088397009 9.253767306888076 1.25
      vertex 11.932147002394364 9.615672065628228 3
    endloop
  endfacet
  facet normal 0.9951203656589098 -0.09801080132304148 -0.011372804178958775
    outer loop
      vertex 11.932147002394364 9.615672065628228 3
      vertex 11.9125312967863 9.61957387206855 1.25
      vertex 11.97 10 3
    endloop
  endfacet
  facet normal 0 0 1
    outer loop
      vertex 11.094473359048616 8.362004863763985 3
      vertex 11.393000358937499 8.606999641062501 3
      vertex 11.094473359048616 11.637995136236015 3
    endloop
  endfacet
  facet normal 0 0 1
    outer loop
      vertex 11.393000358937499 8.606999641062501 3
      vertex 11.637995136236015 8.905526640951384 3
      vertex 11.393000358937499 11.393000358937499 3
    endloop
  endfacet
  facet normal 0 0 1
    outer loop
      vertex 11.637995136236015 8.905526640951384 3
      vertex 11.820042679047235 9.246113638240773 3
      vertex 11.637995136236015 11.094473359048616 3
    endloop
  endfacet
  facet normal 0 0 1
    outer loop
      vertex 11.820042679047235 9.246113638240773 3
      vertex 11.932147002394364 9.615672065628228 3
      vertex 11.820042679047235 10.753886361759227 3
    endloop
  endfacet
  facet normal 0 0 1
    outer loop
      vertex 11.932147002394364 9.615672065628228 3
      vertex 11.97 10 3
      vertex 11.932147002394364 10.384327934371772 3
    endloop
  endfacet
  facet normal -0.9951203656589104 0.09801080132303709 -0.011372804178958772
    outer loop
      vertex 8.067852997605636 10.384327934371772 3
      vertex 8.0874687032137 10.38042612793145 1.25
      vertex 8.05 10 1.25
    endloop
  endfacet
  facet normal -0.9568784480765676 0.2902659038393703 -0.011372804178958666
    outer loop
      vertex 8.067852997605636 10.384327934371772 3
      vertex 8.198434911602991 10.746232693111924 1.25
      vertex 8.0874687032137 10.38042612793145 1.25
    endloop
  endfacet
  facet normal -0.8818642283582614 0.4713662504541404 -0.01137280417895943
    outer loop
      vertex 8.179957320952765 10.753886361759227 3
      vertex 8.378634256010036 11.083361954388224 1.25
      vertex 8.198434911602991 10.746232693111924 1.25
    endloop
  endfacet
  facet normal -0.9951203656589098 0.09801080132304148 -0.011372804178959738
    outer loop
      vertex 8.03 10 3
      vertex 8.067852997605636 10.384327934371772 3
      vertex 8.05 10 1.25
    endloop
  endfacet
  facet normal 0 0 1
    outer loop
      vertex 8.179957320952765 9.246113638240773 3
      vertex 8.179957320952765 10.753886361759227 3
      vertex 8.067852997605636 10.384327934371772 3
    endloop
  endfacet
  facet normal 0 0 1
    outer loop
      vertex 8.362004863763985 8.905526640951384 3
      vertex 8.362004863763985 11.094473359048616 3
      vertex 8.179957320952765 10.753886361759227 3
    endloop
  endfacet
  facet normal 0 0 1
    outer loop
      vertex 8.606999641062501 8.606999641062501 3
      vertex 8.606999641062501 11.393000358937499 3
      vertex 8.362004863763985 11.094473359048616 3
    endloop
  endfacet
  facet normal 0 0 1
    outer loop
      vertex 8.905526640951384 8.362004863763985 3
      vertex 8.905526640951384 11.637995136236015 3
      vertex 8.606999641062501 11.393000358937499 3
    endloop
  endfacet
  facet normal 0 0 1
    outer loop
      vertex 9.246113638240773 8.179957320952765 3
      vertex 9.246113638240773 11.820042679047235 3
      vertex 8.905526640951384 11.637995136236015 3
    endloop
  endfacet
  facet normal -0.9568784480765685 0.29026590383936707 -0.0113728041789594
    outer loop
      vertex 8.067852997605636 10.384327934371772 3
      vertex 8.179957320952765 10.753886361759227 3
      vertex 8.198434911602991 10.746232693111924 1.25
    endloop
  endfacet
  facet normal -0.8818642283582602 0.4713662504541426 -0.011372804178958862
    outer loop
      vertex 8.179957320952765 10.753886361759227 3
      vertex 8.362004863763985 11.094473359048616 3
      vertex 8.378634256010036 11.083361954388224 1.25
    endloop
  endfacet
  facet normal 0 0 1
    outer loop
      vertex 9.615672065628228 8.067852997605636 3
      vertex 9.615672065628228 11.932147002394364 3
      vertex 9.246113638240773 11.820042679047235 3
    endloop
  endfacet
  facet normal 0 0 1
    outer loop
      vertex 10 8.03 3
      vertex 10 11.97 3
      vertex 9.615672065628228 11.932147002394364 3
    endloop
  endfacet
  facet normal 0 0 1
    outer loop
      vertex 10.384327934371772 8.067852997605636 3
      vertex 10.384327934371772 11.932147002394364 3
      vertex 10 11.97 3
    endloop
  endfacet
  facet normal 0 0 1
    outer loop
      vertex 10.753886361759227 8.179957320952765 3
      vertex 10.753886361759227 11.820042679047235 3
      vertex 10.384327934371772 11.932147002394364 3
    endloop
  endfacet
  facet normal -0.7729604608993033 0.6343522564092001 -0.011372804178958874
    outer loop
      vertex 8.362004863763985 11.094473359048616 3
      vertex 8.621141776686231 11.378858223313769 1.25
      vertex 8.378634256010036 11.083361954388224 1.25
    endloop
  endfacet
  facet normal -0.6343522564092001 0.7729604608993033 -0.011372804178958874
    outer loop
      vertex 8.905526640951384 11.637995136236015 3
      vertex 8.916638045611776 11.621365743989964 1.25
      vertex 8.621141776686231 11.378858223313769 1.25
    endloop
  endfacet
  facet normal -0.4713662504541404 0.8818642283582614 -0.01137280417895943
    outer loop
      vertex 9.246113638240773 11.820042679047235 3
      vertex 9.253767306888076 11.801565088397009 1.25
      vertex 8.916638045611776 11.621365743989964 1.25
    endloop
  endfacet
  facet normal -0.2902659038393703 0.9568784480765676 -0.011372804178959403
    outer loop
      vertex 9.246113638240773 11.820042679047235 3
      vertex 9.61957387206855 11.9125312967863 1.25
      vertex 9.253767306888076 11.801565088397009 1.25
    endloop
  endfacet
  facet normal -0.09801080132303709 0.9951203656589104 -0.011372804178958772
    outer loop
      vertex 9.615672065628228 11.932147002394364 3
      vertex 10 11.95 1.25
      vertex 9.61957387206855 11.9125312967863 1.25
    endloop
  endfacet
  facet normal 0.09801080132303709 0.9951203656589104 -0.011372804178959743
    outer loop
      vertex 10 11.97 3
      vertex 10.38042612793145 11.9125312967863 1.25
      vertex 10 11.95 1.25
    endloop
  endfacet
  facet normal 0.2902659038393703 0.9568784480765676 -0.011372804178958666
    outer loop
      vertex 10.384327934371772 11.932147002394364 3
      vertex 10.746232693111924 11.801565088397009 1.25
      vertex 10.38042612793145 11.9125312967863 1.25
    endloop
  endfacet
  facet normal 0.4713662504541404 0.8818642283582614 -0.01137280417895943
    outer loop
      vertex 10.753886361759227 11.820042679047235 3
      vertex 11.083361954388224 11.621365743989964 1.25
      vertex 10.746232693111924 11.801565088397009 1.25
    endloop
  endfacet
  facet normal -0.7729604608993027 0.634352256409201 -0.011372804178958652
    outer loop
      vertex 8.362004863763985 11.094473359048616 3
      vertex 8.606999641062501 11.393000358937499 3
      vertex 8.621141776686231 11.378858223313769 1.25
    endloop
  endfacet
  facet normal -0.634352256409201 0.7729604608993027 -0.01137280417895866
    outer loop
      vertex 8.606999641062501 11.393000358937499 3
      vertex 8.905526640951384 11.637995136236015 3
      vertex 8.621141776686231 11.378858223313769 1.25
    endloop
  endfacet
  facet normal -0.4713662504541426 0.8818642283582602 -0.011372804178958872
    outer loop
      vertex 8.905526640951384 11.637995136236015 3
      vertex 9.246113638240773 11.820042679047235 3
      vertex 8.916638045611776 11.621365743989964 1.25
    endloop
  endfacet
  facet normal -0.29026590383936707 0.9568784480765685 -0.011372804178958671
    outer loop
      vertex 9.246113638240773 11.820042679047235 3
      vertex 9.615672065628228 11.932147002394364 3
      vertex 9.61957387206855 11.9125312967863 1.25
    endloop
  endfacet
  facet normal -0.09801080132304148 0.9951203656589098 -0.011372804178959738
    outer loop
      vertex 9.615672065628228 11.932147002394364 3
      vertex 10 11.97 3
      vertex 10 11.95 1.25
    endloop
  endfacet
  facet normal 0.09801080132304148 0.9951203656589098 -0.011372804178958775
    outer loop
      vertex 10 11.97 3
      vertex 10.384327934371772 11.932147002394364 3
      vertex 10.38042612793145 11.9125312967863 1.25
    endloop
  endfacet
  facet normal 0.29026590383936707 0.9568784480765685 -0.0113728041789594
    outer loop
      vertex 10.384327934371772 11.932147002394364 3
      vertex 10.753886361759227 11.820042679047235 3
      vertex 10.746232693111924 11.801565088397009 1.25
    endloop
  endfacet
  facet normal 0.9951203656589104 0.09801080132303709 -0.011372804178959743
    outer loop
      vertex 11.97 10 3
      vertex 11.95 10 1.25
      vertex 11.9125312967863 10.38042612793145 1.25
    endloop
  endfacet
  facet normal 0.9568784480765676 0.2902659038393703 -0.011372804178958666
    outer loop
      vertex 11.932147002394364 10.384327934371772 3
      vertex 11.9125312967863 10.38042612793145 1.25
      vertex 11.801565088397009 10.746232693111924 1.25
    endloop
  endfacet
  facet normal 0.8818642283582614 0.4713662504541404 -0.01137280417895943
    outer loop
      vertex 11.820042679047235 10.753886361759227 3
      vertex 11.801565088397009 10.746232693111924 1.25
      vertex 11.621365743989964 11.083361954388224 1.25
    endloop
  endfacet
  facet normal 0.9951203656589098 0.09801080132304148 -0.011372804178958775
    outer loop
      vertex 11.97 10 3
      vertex 11.9125312967863 10.38042612793145 1.25
      vertex 11.932147002394364 10.384327934371772 3
    endloop
  endfacet
  facet normal 0 0 1
    outer loop
      vertex 11.393000358937499 8.606999641062501 3
      vertex 11.393000358937499 11.393000358937499 3
      vertex 11.094473359048616 11.637995136236015 3
    endloop
  endfacet
  facet normal 0 0 1
    outer loop
      vertex 11.820042679047235 9.246113638240773 3
      vertex 11.820042679047235 10.753886361759227 3
      vertex 11.637995136236015 11.094473359048616 3
    endloop
  endfacet
  facet normal 0 0 1
    outer loop
      vertex 11.637995136236015 8.905526640951384 3
      vertex 11.637995136236015 11.094473359048616 3
      vertex 11.393000358937499 11.393000358937499 3
    endloop
  endfacet
  facet normal 0 0 1
    outer loop
      vertex 11.932147002394364 9.615672065628228 3
      vertex 11.932147002394364 10.384327934371772 3
      vertex 11.820042679047235 10.753886361759227 3
    endloop
  endfacet
  facet normal 0.8818642283582602 0.4713662504541426 -0.011372804178958862
    outer loop
      vertex 11.820042679047235 10.753886361759227 3
      vertex 11.621365743989964 11.083361954388224 1.25
      vertex 11.637995136236015 11.094473359048616 3
    endloop
  endfacet
  facet normal 0.9568784480765685 0.29026590383936707 -0.0113728041789594
    outer loop
      vertex 11.932147002394364 10.384327934371772 3
      vertex 11.801565088397009 10.746232693111924 1.25
      vertex 11.820042679047235 10.753886361759227 3
    endloop
  endfacet
  facet normal 0 0 1
    outer loop
      vertex 11.094473359048616 8.362004863763985 3
      vertex 11.094473359048616 11.637995136236015 3
      vertex 10.753886361759227 11.820042679047235 3
    endloop
  endfacet
  facet normal 0.7729604608993033 0.6343522564092001 -0.011372804178958874
    outer loop
      vertex 11.637995136236015 11.094473359048616 3
      vertex 11.621365743989964 11.083361954388224 1.25
      vertex 11.378858223313769 11.378858223313769 1.25
    endloop
  endfacet
  facet normal 0.6343522564092001 0.7729604608993033 -0.011372804178958874
    outer loop
      vertex 11.094473359048616 11.637995136236015 3
      vertex 11.378858223313769 11.378858223313769 1.25
      vertex 11.083361954388224 11.621365743989964 1.25
    endloop
  endfacet
  facet normal 0.7729604608993027 0.634352256409201 -0.011372804178958652
    outer loop
      vertex 11.637995136236015 11.094473359048616 3
      vertex 11.378858223313769 11.378858223313769 1.25
      vertex 11.393000358937499 11.393000358937499 3
    endloop
  endfacet
  facet normal 0.634352256409201 0.7729604608993027 -0.011372804178958652
    outer loop
      vertex 11.094473359048616 11.637995136236015 3
      vertex 11.393000358937499 11.393000358937499 3
      vertex 11.378858223313769 11.378858223313769 1.25
    endloop
  endfacet
  facet normal 0.4713662504541426 0.8818642283582602 -0.011372804178958872
    outer loop
      vertex 11.094473359048616 11.637995136236015 3
      vertex 11.083361954388224 11.621365743989964 1.25
      vertex 10.753886361759227 11.820042679047235 3
    endloop
  endfacet
  facet normal -0.6343522564092025 -0.7729604608993015 -0.011372804178959516
    outer loop
      vertex 17.705526640951383 8.362004863763985 3
      vertex 17.421141776686234 8.621141776686231 1.25
      vertex 17.716638045611777 8.378634256010036 1.25
    endloop
  endfacet
  facet normal -0.7729604608993033 -0.6343522564092001 -0.011372804178959658
    outer loop
      vertex 17.162004863763986 8.905526640951384 3
      vertex 17.17863425601004 8.916638045611776 1.25
      vertex 17.421141776686234 8.621141776686231 1.25
    endloop
  endfacet
  facet normal -0.4713662504541426 -0.8818642283582602 -0.011372804178959344
    outer loop
      vertex 18.046113638240772 8.179957320952765 3
      vertex 17.705526640951383 8.362004863763985 3
      vertex 17.716638045611777 8.378634256010036 1.25
    endloop
  endfacet
  facet normal -0.6343522564092031 -0.7729604608993008 -0.011372804178959306
    outer loop
      vertex 17.4069996410625 8.606999641062501 3
      vertex 17.421141776686234 8.621141776686231 1.25
      vertex 17.705526640951383 8.362004863763985 3
    endloop
  endfacet
  facet normal -0.7729604608993027 -0.634352256409201 -0.011372804178959445
    outer loop
      vertex 17.4069996410625 8.606999641062501 3
      vertex 17.162004863763986 8.905526640951384 3
      vertex 17.421141776686234 8.621141776686231 1.25
    endloop
  endfacet
  facet normal -0.8818642283582594 -0.471366250454144 -0.01137280417895853
    outer loop
      vertex 16.979957320952767 9.246113638240773 3
      vertex 16.998434911602992 9.253767306888076 1.25
      vertex 17.17863425601004 8.916638045611776 1.25
    endloop
  endfacet
  facet normal -0.956878448076569 -0.290265903839366 -0.011372804178958671
    outer loop
      vertex 16.867852997605638 9.615672065628228 3
      vertex 16.887468703213703 9.61957387206855 1.25
      vertex 16.998434911602992 9.253767306888076 1.25
    endloop
  endfacet
  facet normal -0.9951203656589098 -0.0980108013230417 -0.011372804178958728
    outer loop
      vertex 16.830000000000002 10 3
      vertex 16.85 10 1.25
      vertex 16.887468703213703 9.61957387206855 1.25
    endloop
  endfacet
  facet normal -0.9568784480765685 -0.29026590383936707 -0.011372804178958426
    outer loop
      vertex 16.979957320952767 9.246113638240773 3
      vertex 16.867852997605638 9.615672065628228 3
      vertex 16.998434911602992 9.253767306888076 1.25
    endloop
  endfacet
  facet normal -0.8818642283582621 -0.47136625045413905 -0.011372804178959762
    outer loop
      vertex 17.162004863763986 8.905526640951384 3
      vertex 16.979957320952767 9.246113638240773 3
      vertex 17.17863425601004 8.916638045611776 1.25
    endloop
  endfacet
  facet normal 0 0 1
    outer loop
      vertex 18.046113638240772 8.179957320952765 3
      vertex 17.705526640951383 11.637995136236015 3
      vertex 17.705526640951383 8.362004863763985 3
    endloop
  endfacet
  facet normal -0.9951203656589098 -0.09801080132304148 -0.011372804178958775
    outer loop
      vertex 16.867852997605638 9.615672065628228 3
      vertex 16.830000000000002 10 3
      vertex 16.887468703213703 9.61957387206855 1.25
    endloop
  endfacet
  facet normal 0 0 1
    outer loop
      vertex 16.979957320952767 9.246113638240773 3
      vertex 16.867852997605638 10.384327934371772 3
      vertex 16.867852997605638 9.615672065628228 3
    endloop
  endfacet
  facet normal 0 0 1
    outer loop
      vertex 16.867852997605638 9.615672065628228 3
      vertex 16.867852997605638 10.384327934371772 3
      vertex 16.830000000000002 10 3
    endloop
  endfacet
  facet normal 0 0 1
    outer loop
      vertex 17.4069996410625 8.606999641062501 3
      vertex 17.162004863763986 11.094473359048616 3
      vertex 17.162004863763986 8.905526640951384 3
    endloop
  endfacet
  facet normal 0 0 1
    outer loop
      vertex 17.162004863763986 8.905526640951384 3
      vertex 16.979957320952767 10.753886361759227 3
      vertex 16.979957320952767 9.246113638240773 3
    endloop
  endfacet
  facet normal 0 0 1
    outer loop
      vertex 17.4069996410625 8.606999641062501 3
      vertex 17.705526640951383 8.362004863763985 3
      vertex 17.4069996410625 11.393000358937499 3
    endloop
  endfacet
  facet normal -0.4713662504541404 -0.8818642283582614 -0.01137280417895991
    outer loop
      vertex 18.046113638240772 8.179957320952765 3
      vertex 17.716638045611777 8.378634256010036 1.25
      vertex 18.053767306888076 8.198434911602991 1.25
    endloop
  endfacet
  facet normal -0.2902659038393703 -0.9568784480765676 -0.011372804178958666
    outer loop
      vertex 18.41567206562823 8.067852997605636 3
      vertex 18.053767306888076 8.198434911602991 1.25
      vertex 18.41957387206855 8.0874687032137 1.25
    endloop
  endfacet
  facet normal -0.09801080132303709 -0.9951203656589104 -0.011372804178959743
    outer loop
      vertex 18.8 8.03 3
      vertex 18.41957387206855 8.0874687032137 1.25
      vertex 18.8 8.05 1.25
    endloop
  endfacet
  facet normal 0.09801080132303709 -0.9951203656589104 -0.011372804178958772
    outer loop
      vertex 19.184327934371773 8.067852997605636 3
      vertex 18.8 8.05 1.25
      vertex 19.18042612793145 8.0874687032137 1.25
    endloop
  endfacet
  facet normal 0.2902659038393703 -0.9568784480765676 -0.011372804178959698
    outer loop
      vertex 19.55388636175923 8.179957320952765 3
      vertex 19.18042612793145 8.0874687032137 1.25
      vertex 19.546232693111925 8.198434911602991 1.25
    endloop
  endfacet
  facet normal 0.4713662504541404 -0.8818642283582614 -0.01137280417895991
    outer loop
      vertex 19.55388636175923 8.179957320952765 3
      vertex 19.546232693111925 8.198434911602991 1.25
      vertex 19.883361954388224 8.378634256010036 1.25
    endloop
  endfacet
  facet normal 0.6343522564092025 -0.7729604608993015 -0.011372804178959516
    outer loop
      vertex 19.894473359048618 8.362004863763985 3
      vertex 19.883361954388224 8.378634256010036 1.25
      vertex 20.178858223313767 8.621141776686231 1.25
    endloop
  endfacet
  facet normal 0.7729604608993033 -0.6343522564092001 -0.011372804178959658
    outer loop
      vertex 20.437995136236015 8.905526640951384 3
      vertex 20.178858223313767 8.621141776686231 1.25
      vertex 20.421365743989963 8.916638045611776 1.25
    endloop
  endfacet
  facet normal -0.2902659038393658 -0.956878448076569 -0.011372804178959693
    outer loop
      vertex 18.046113638240772 8.179957320952765 3
      vertex 18.053767306888076 8.198434911602991 1.25
      vertex 18.41567206562823 8.067852997605636 3
    endloop
  endfacet
  facet normal -0.09801080132304148 -0.9951203656589098 -0.011372804178958775
    outer loop
      vertex 18.41567206562823 8.067852997605636 3
      vertex 18.41957387206855 8.0874687032137 1.25
      vertex 18.8 8.03 3
    endloop
  endfacet
  facet normal 0.09801080132304148 -0.9951203656589098 -0.011372804178959738
    outer loop
      vertex 18.8 8.03 3
      vertex 18.8 8.05 1.25
      vertex 19.184327934371773 8.067852997605636 3
    endloop
  endfacet
  facet normal 0.2902659038393658 -0.956878448076569 -0.011372804178958671
    outer loop
      vertex 19.184327934371773 8.067852997605636 3
      vertex 19.18042612793145 8.0874687032137 1.25
      vertex 19.55388636175923 8.179957320952765 3
    endloop
  endfacet
  facet normal 0.4713662504541426 -0.8818642283582602 -0.011372804178959344
    outer loop
      vertex 19.55388636175923 8.179957320952765 3
      vertex 19.883361954388224 8.378634256010036 1.25
      vertex 19.894473359048618 8.362004863763985 3
    endloop
  endfacet
  facet normal 0.6343522564092031 -0.7729604608993008 -0.011372804178959306
    outer loop
      vertex 19.894473359048618 8.362004863763985 3
      vertex 20.178858223313767 8.621141776686231 1.25
      vertex 20.1930003589375 8.606999641062501 3
    endloop
  endfacet
  facet normal 0.7729604608993027 -0.634352256409201 -0.011372804178959445
    outer loop
      vertex 20.1930003589375 8.606999641062501 3
      vertex 20.178858223313767 8.621141776686231 1.25
      vertex 20.437995136236015 8.905526640951384 3
    endloop
  endfacet
  facet normal 0.8818642283582594 -0.471366250454144 -0.01137280417895853
    outer loop
      vertex 20.620042679047234 9.246113638240773 3
      vertex 20.421365743989963 8.916638045611776 1.25
      vertex 20.60156508839701 9.253767306888076 1.25
    endloop
  endfacet
  facet normal 0.956878448076569 -0.290265903839366 -0.011372804178958671
    outer loop
      vertex 20.732147002394363 9.615672065628228 3
      vertex 20.60156508839701 9.253767306888076 1.25
      vertex 20.7125312967863 9.61957387206855 1.25
    endloop
  endfacet
  facet normal 0.9951203656589098 -0.0980108013230417 -0.011372804178958728
    outer loop
      vertex 20.77 10 3
      vertex 20.7125312967863 9.61957387206855 1.25
      vertex 20.75 10 1.25
    endloop
  endfacet
  facet normal 0 0 1
    outer loop
      vertex 18.046113638240772 8.179957320952765 3
      vertex 18.41567206562823 8.067852997605636 3
      vertex 18.046113638240772 11.820042679047235 3
    endloop
  endfacet
  facet normal 0 0 1
    outer loop
      vertex 18.41567206562823 8.067852997605636 3
      vertex 18.8 8.03 3
      vertex 18.41567206562823 11.932147002394364 3
    endloop
  endfacet
  facet normal 0 0 1
    outer loop
      vertex 18.8 8.03 3
      vertex 19.184327934371773 8.067852997605636 3
      vertex 18.8 11.97 3
    endloop
  endfacet
  facet normal 0 0 1
    outer loop
      vertex 19.184327934371773 8.067852997605636 3
      vertex 19.55388636175923 8.179957320952765 3
      vertex 19.184327934371773 11.932147002394364 3
    endloop
  endfacet
  facet normal 0.8818642283582621 -0.47136625045413905 -0.011372804178959762
    outer loop
      vertex 20.437995136236015 8.905526640951384 3
      vertex 20.421365743989963 8.916638045611776 1.25
      vertex 20.620042679047234 9.246113638240773 3
    endloop
  endfacet
  facet normal 0.9568784480765685 -0.29026590383936707 -0.011372804178958426
    outer loop
      vertex 20.620042679047234 9.246113638240773 3
      vertex 20.60156508839701 9.253767306888076 1.25
      vertex 20.732147002394363 9.615672065628228 3
    endloop
  endfacet
  facet normal 0.9951203656589098 -0.09801080132304148 -0.011372804178958775
    outer loop
      vertex 20.732147002394363 9.615672065628228 3
      vertex 20.7125312967863 9.61957387206855 1.25
      vertex 20.77 10 3
    endloop
  endfacet
  facet normal 0 0 1
    outer loop
      vertex 19.55388636175923 8.179957320952765 3
      vertex 19.894473359048618 8.362004863763985 3
      vertex 19.55388636175923 11.820042679047235 3
    endloop
  endfacet
  facet normal 0 0 1
    outer loop
      vertex 19.894473359048618 8.362004863763985 3
      vertex 20.1930003589375 8.606999641062501 3
      vertex 19.894473359048618 11.637995136236015 3
    endloop
  endfacet
  facet normal 0 0 1
    outer loop
      vertex 20.1930003589375 8.606999641062501 3
      vertex 20.437995136236015 8.905526640951384 3
      vertex 20.1930003589375 11.393000358937499 3
    endloop
  endfacet
  facet normal 0 0 1
    outer loop
      vertex 20.437995136236015 8.905526640951384 3
      vertex 20.620042679047234 9.246113638240773 3
      vertex 20.437995136236015 11.094473359048616 3
    endloop
  endfacet
  facet normal 0 0 1
    outer loop
      vertex 20.620042679047234 9.246113638240773 3
      vertex 20.732147002394363 9.615672065628228 3
      vertex 20.620042679047234 10.753886361759227 3
    endloop
  endfacet
  facet normal 0 0 1
    outer loop
      vertex 20.732147002394363 9.615672065628228 3
      vertex 20.77 10 3
      vertex 20.732147002394363 10.384327934371772 3
    endloop
  endfacet
  facet normal -0.9951203656589098 0.0980108013230417 -0.011372804178958775
    outer loop
      vertex 16.867852997605638 10.384327934371772 3
      vertex 16.887468703213703 10.38042612793145 1.25
      vertex 16.85 10 1.25
    endloop
  endfacet
  facet normal -0.956878448076569 0.290265903839366 -0.011372804178958671
    outer loop
      vertex 16.867852997605638 10.384327934371772 3
      vertex 16.998434911602992 10.746232693111924 1.25
      vertex 16.887468703213703 10.38042612793145 1.25
    endloop
  endfacet
  facet normal -0.8818642283582594 0.471366250454144 -0.01137280417895853
    outer loop
      vertex 16.979957320952767 10.753886361759227 3
      vertex 17.17863425601004 11.083361954388224 1.25
      vertex 16.998434911602992 10.746232693111924 1.25
    endloop
  endfacet
  facet normal -0.9951203656589098 0.09801080132304148 -0.011372804178958727
    outer loop
      vertex 16.830000000000002 10 3
      vertex 16.867852997605638 10.384327934371772 3
      vertex 16.85 10 1.25
    endloop
  endfacet
  facet normal 0 0 1
    outer loop
      vertex 16.979957320952767 9.246113638240773 3
      vertex 16.979957320952767 10.753886361759227 3
      vertex 16.867852997605638 10.384327934371772 3
    endloop
  endfacet
  facet normal 0 0 1
    outer loop
      vertex 17.162004863763986 8.905526640951384 3
      vertex 17.162004863763986 11.094473359048616 3
      vertex 16.979957320952767 10.753886361759227 3
    endloop
  endfacet
  facet normal 0 0 1
    outer loop
      vertex 17.4069996410625 8.606999641062501 3
      vertex 17.4069996410625 11.393000358937499 3
      vertex 17.162004863763986 11.094473359048616 3
    endloop
  endfacet
  facet normal 0 0 1
    outer loop
      vertex 17.705526640951383 8.362004863763985 3
      vertex 17.705526640951383 11.637995136236015 3
      vertex 17.4069996410625 11.393000358937499 3
    endloop
  endfacet
  facet normal -0.9568784480765685 0.29026590383936707 -0.011372804178958425
    outer loop
      vertex 16.867852997605638 10.384327934371772 3
      vertex 16.979957320952767 10.753886361759227 3
      vertex 16.998434911602992 10.746232693111924 1.25
    endloop
  endfacet
  facet normal -0.8818642283582621 0.47136625045413905 -0.011372804178959759
    outer loop
      vertex 16.979957320952767 10.753886361759227 3
      vertex 17.162004863763986 11.094473359048616 3
      vertex 17.17863425601004 11.083361954388224 1.25
    endloop
  endfacet
  facet normal -0.7729604608993033 0.6343522564092001 -0.011372804178959658
    outer loop
      vertex 17.162004863763986 11.094473359048616 3
      vertex 17.421141776686234 11.378858223313769 1.25
      vertex 17.17863425601004 11.083361954388224 1.25
    endloop
  endfacet
  facet normal -0.6343522564092025 0.7729604608993015 -0.011372804178959516
    outer loop
      vertex 17.705526640951383 11.637995136236015 3
      vertex 17.716638045611777 11.621365743989964 1.25
      vertex 17.421141776686234 11.378858223313769 1.25
    endloop
  endfacet
  facet normal -0.7729604608993027 0.634352256409201 -0.01137280417895943
    outer loop
      vertex 17.162004863763986 11.094473359048616 3
      vertex 17.4069996410625 11.393000358937499 3
      vertex 17.421141776686234 11.378858223313769 1.25
    endloop
  endfacet
  facet normal -0.6343522564092031 0.7729604608993008 -0.011372804178959306
    outer loop
      vertex 17.4069996410625 11.393000358937499 3
      vertex 17.705526640951383 11.637995136236015 3
      vertex 17.421141776686234 11.378858223313769 1.25
    endloop
  endfacet
  facet normal -0.4713662504541426 0.8818642283582602 -0.01137280417895935
    outer loop
      vertex 17.705526640951383 11.637995136236015 3
      vertex 18.046113638240772 11.820042679047235 3
      vertex 17.716638045611777 11.621365743989964 1.25
    endloop
  endfacet
  facet normal 0.9951203656589098 0.0980108013230417 -0.011372804178958728
    outer loop
      vertex 20.77 10 3
      vertex 20.75 10 1.25
      vertex 20.7125312967863 10.38042612793145 1.25
    endloop
  endfacet
  facet normal 0.956878448076569 0.290265903839366 -0.011372804178958671
    outer loop
      vertex 20.732147002394363 10.384327934371772 3
      vertex 20.7125312967863 10.38042612793145 1.25
      vertex 20.60156508839701 10.746232693111924 1.25
    endloop
  endfacet
  facet normal 0.8818642283582594 0.471366250454144 -0.01137280417895853
    outer loop
      vertex 20.620042679047234 10.753886361759227 3
      vertex 20.60156508839701 10.746232693111924 1.25
      vertex 20.421365743989963 11.083361954388224 1.25
    endloop
  endfacet
  facet normal 0 0 1
    outer loop
      vertex 18.046113638240772 8.179957320952765 3
      vertex 18.046113638240772 11.820042679047235 3
      vertex 17.705526640951383 11.637995136236015 3
    endloop
  endfacet
  facet normal 0 0 1
    outer loop
      vertex 18.41567206562823 8.067852997605636 3
      vertex 18.41567206562823 11.932147002394364 3
      vertex 18.046113638240772 11.820042679047235 3
    endloop
  endfacet
  facet normal 0 0 1
    outer loop
      vertex 18.8 8.03 3
      vertex 18.8 11.97 3
      vertex 18.41567206562823 11.932147002394364 3
    endloop
  endfacet
  facet normal 0 0 1
    outer loop
      vertex 19.184327934371773 8.067852997605636 3
      vertex 19.184327934371773 11.932147002394364 3
      vertex 18.8 11.97 3
    endloop
  endfacet
  facet normal 0 0 1
    outer loop
      vertex 19.55388636175923 8.179957320952765 3
      vertex 19.55388636175923 11.820042679047235 3
      vertex 19.184327934371773 11.932147002394364 3
    endloop
  endfacet
  facet normal 0.9951203656589098 0.09801080132304148 -0.011372804178958775
    outer loop
      vertex 20.77 10 3
      vertex 20.7125312967863 10.38042612793145 1.25
      vertex 20.732147002394363 10.384327934371772 3
    endloop
  endfacet
  facet normal 0 0 1
    outer loop
      vertex 20.1930003589375 8.606999641062501 3
      vertex 20.1930003589375 11.393000358937499 3
      vertex 19.894473359048618 11.637995136236015 3
    endloop
  endfacet
  facet normal 0 0 1
    outer loop
      vertex 20.437995136236015 8.905526640951384 3
      vertex 20.437995136236015 11.094473359048616 3
      vertex 20.1930003589375 11.393000358937499 3
    endloop
  endfacet
  facet normal 0 0 1
    outer loop
      vertex 20.732147002394363 9.615672065628228 3
      vertex 20.732147002394363 10.384327934371772 3
      vertex 20.620042679047234 10.753886361759227 3
    endloop
  endfacet
  facet normal 0 0 1
    outer loop
      vertex 20.620042679047234 9.246113638240773 3
      vertex 20.620042679047234 10.753886361759227 3
      vertex 20.437995136236015 11.094473359048616 3
    endloop
  endfacet
  facet normal 0.9568784480765685 0.29026590383936707 -0.011372804178958425
    outer loop
      vertex 20.732147002394363 10.384327934371772 3
      vertex 20.60156508839701 10.746232693111924 1.25
      vertex 20.620042679047234 10.753886361759227 3
    endloop
  endfacet
  facet normal 0.8818642283582621 0.47136625045413905 -0.011372804178959759
    outer loop
      vertex 20.620042679047234 10.753886361759227 3
      vertex 20.421365743989963 11.083361954388224 1.25
      vertex 20.437995136236015 11.094473359048616 3
    endloop
  endfacet
  facet normal 0 0 1
    outer loop
      vertex 19.894473359048618 8.362004863763985 3
      vertex 19.894473359048618 11.637995136236015 3
      vertex 19.55388636175923 11.820042679047235 3
    endloop
  endfacet
  facet normal -0.4713662504541404 0.8818642283582614 -0.01137280417895991
    outer loop
      vertex 18.046113638240772 11.820042679047235 3
      vertex 18.053767306888076 11.801565088397009 1.25
      vertex 17.716638045611777 11.621365743989964 1.25
    endloop
  endfacet
  facet normal -0.2902659038393703 0.9568784480765676 -0.011372804178959698
    outer loop
      vertex 18.046113638240772 11.820042679047235 3
      vertex 18.41957387206855 11.9125312967863 1.25
      vertex 18.053767306888076 11.801565088397009 1.25
    endloop
  endfacet
  facet normal -0.09801080132303709 0.9951203656589104 -0.011372804178958772
    outer loop
      vertex 18.41567206562823 11.932147002394364 3
      vertex 18.8 11.95 1.25
      vertex 18.41957387206855 11.9125312967863 1.25
    endloop
  endfacet
  facet normal 0.09801080132303709 0.9951203656589104 -0.011372804178959743
    outer loop
      vertex 18.8 11.97 3
      vertex 19.18042612793145 11.9125312967863 1.25
      vertex 18.8 11.95 1.25
    endloop
  endfacet
  facet normal 0.2902659038393703 0.9568784480765676 -0.011372804178958666
    outer loop
      vertex 19.184327934371773 11.932147002394364 3
      vertex 19.546232693111925 11.801565088397009 1.25
      vertex 19.18042612793145 11.9125312967863 1.25
    endloop
  endfacet
  facet normal 0.7729604608993033 0.6343522564092001 -0.011372804178959658
    outer loop
      vertex 20.437995136236015 11.094473359048616 3
      vertex 20.421365743989963 11.083361954388224 1.25
      vertex 20.178858223313767 11.378858223313769 1.25
    endloop
  endfacet
  facet normal 0.6343522564092025 0.7729604608993015 -0.011372804178959516
    outer loop
      vertex 19.894473359048618 11.637995136236015 3
      vertex 20.178858223313767 11.378858223313769 1.25
      vertex 19.883361954388224 11.621365743989964 1.25
    endloop
  endfacet
  facet normal 0.4713662504541404 0.8818642283582614 -0.01137280417895991
    outer loop
      vertex 19.55388636175923 11.820042679047235 3
      vertex 19.883361954388224 11.621365743989964 1.25
      vertex 19.546232693111925 11.801565088397009 1.25
    endloop
  endfacet
  facet normal -0.2902659038393658 0.956878448076569 -0.011372804178958675
    outer loop
      vertex 18.046113638240772 11.820042679047235 3
      vertex 18.41567206562823 11.932147002394364 3
      vertex 18.41957387206855 11.9125312967863 1.25
    endloop
  endfacet
  facet normal -0.09801080132304148 0.9951203656589098 -0.011372804178959738
    outer loop
      vertex 18.41567206562823 11.932147002394364 3
      vertex 18.8 11.97 3
      vertex 18.8 11.95 1.25
    endloop
  endfacet
  facet normal 0.09801080132304148 0.9951203656589098 -0.011372804178958775
    outer loop
      vertex 18.8 11.97 3
      vertex 19.184327934371773 11.932147002394364 3
      vertex 19.18042612793145 11.9125312967863 1.25
    endloop
  endfacet
  facet normal 0.2902659038393658 0.956878448076569 -0.011372804178959693
    outer loop
      vertex 19.55388636175923 11.820042679047235 3
      vertex 19.546232693111925 11.801565088397009 1.25
      vertex 19.184327934371773 11.932147002394364 3
    endloop
  endfacet
  facet normal 0.7729604608993027 0.634352256409201 -0.01137280417895943
    outer loop
      vertex 20.437995136236015 11.094473359048616 3
      vertex 20.178858223313767 11.378858223313769 1.25
      vertex 20.1930003589375 11.393000358937499 3
    endloop
  endfacet
  facet normal 0.4713662504541426 0.8818642283582602 -0.01137280417895935
    outer loop
      vertex 19.894473359048618 11.637995136236015 3
      vertex 19.883361954388224 11.621365743989964 1.25
      vertex 19.55388636175923 11.820042679047235 3
    endloop
  endfacet
  facet normal 0.6343522564092031 0.7729604608993008 -0.011372804178959306
    outer loop
      vertex 20.1930003589375 11.393000358937499 3
      vertex 20.178858223313767 11.378858223313769 1.25
      vertex 19.894473359048618 11.637995136236015 3
    endloop
  endfacet
  facet normal 0 0 1
    outer loop
      vertex 7.5 7.7 1.25
      vertex 8.916638045611776 8.378634256010036 1.25
      vertex 8.621141776686231 8.621141776686231 1.25
    endloop
  endfacet
  facet normal 0 0 1
    outer loop
      vertex 7.5 7.7 1.25
      vertex 10 8.05 1.25
      vertex 9.61957387206855 8.0874687032137 1.25
    endloop
  endfacet
  facet normal 0 0 1
    outer loop
      vertex 7.5 7.7 1.25
      vertex 9.253767306888076 8.198434911602991 1.25
      vertex 8.916638045611776 8.378634256010036 1.25
    endloop
  endfacet
  facet normal 0 0 1
    outer loop
      vertex 7.5 7.7 1.25
      vertex 9.61957387206855 8.0874687032137 1.25
      vertex 9.253767306888076 8.198434911602991 1.25
    endloop
  endfacet
  facet normal 0 0 1
    outer loop
      vertex 7.5 7.7 1.25
      vertex 8.621141776686231 8.621141776686231 1.25
      vertex 8.378634256010036 8.916638045611776 1.25
    endloop
  endfacet
  facet normal 0 0 1
    outer loop
      vertex 7.5 7.7 1.25
      vertex 8.378634256010036 8.916638045611776 1.25
      vertex 8.198434911602991 9.253767306888076 1.25
    endloop
  endfacet
  facet normal 0 0 1
    outer loop
      vertex 7.5 7.7 1.25
      vertex 10.38042612793145 8.0874687032137 1.25
      vertex 10 8.05 1.25
    endloop
  endfacet
  facet normal -1 0 0
    outer loop
      vertex 7.5 7.7 0
      vertex 7.5 7.7 1.25
      vertex 7.5 12.3 1.25
    endloop
  endfacet
  facet normal 0 0 1
    outer loop
      vertex 7.5 7.7 1.25
      vertex 8.198434911602991 9.253767306888076 1.25
      vertex 8.0874687032137 9.61957387206855 1.25
    endloop
  endfacet
  facet normal 0 0 1
    outer loop
      vertex 7.5 7.7 1.25
      vertex 8.0874687032137 9.61957387206855 1.25
      vertex 8.05 10 1.25
    endloop
  endfacet
  facet normal 0 0 1
    outer loop
      vertex 7.5 7.7 1.25
      vertex 8.05 10 1.25
      vertex 8.0874687032137 10.38042612793145 1.25
    endloop
  endfacet
  facet normal 0 -1 0
    outer loop
      vertex 7.5 7.7 0
      vertex 21.3 7.7 1.25
      vertex 7.5 7.7 1.25
    endloop
  endfacet
  facet normal 0 0 1
    outer loop
      vertex 7.5 7.7 1.25
      vertex 18.41957387206855 8.0874687032137 1.25
      vertex 10.38042612793145 8.0874687032137 1.25
    endloop
  endfacet
  facet normal 0 0 1
    outer loop
      vertex 10.38042612793145 8.0874687032137 1.25
      vertex 18.41957387206855 8.0874687032137 1.25
      vertex 10.746232693111924 8.198434911602991 1.25
    endloop
  endfacet
  facet normal 0 0 1
    outer loop
      vertex 10.746232693111924 8.198434911602991 1.25
      vertex 18.053767306888076 8.198434911602991 1.25
      vertex 11.083361954388224 8.378634256010036 1.25
    endloop
  endfacet
  facet normal 0 0 1
    outer loop
      vertex 11.083361954388224 8.378634256010036 1.25
      vertex 17.716638045611777 8.378634256010036 1.25
      vertex 11.378858223313769 8.621141776686231 1.25
    endloop
  endfacet
  facet normal 0 0 1
    outer loop
      vertex 11.378858223313769 8.621141776686231 1.25
      vertex 17.421141776686234 8.621141776686231 1.25
      vertex 11.621365743989964 8.916638045611776 1.25
    endloop
  endfacet
  facet normal 0 0 1
    outer loop
      vertex 16.998434911602992 9.253767306888076 1.25
      vertex 11.801565088397009 9.253767306888076 1.25
      vertex 11.621365743989964 8.916638045611776 1.25
    endloop
  endfacet
  facet normal 0 0 1
    outer loop
      vertex 16.998434911602992 9.253767306888076 1.25
      vertex 11.9125312967863 9.61957387206855 1.25
      vertex 11.801565088397009 9.253767306888076 1.25
    endloop
  endfacet
  facet normal 0 0 1
    outer loop
      vertex 16.998434911602992 9.253767306888076 1.25
      vertex 11.95 10 1.25
      vertex 11.9125312967863 9.61957387206855 1.25
    endloop
  endfacet
  facet normal 0 0 1
    outer loop
      vertex 16.998434911602992 9.253767306888076 1.25
      vertex 11.9125312967863 10.38042612793145 1.25
      vertex 11.95 10 1.25
    endloop
  endfacet
  facet normal -1 0 0
    outer loop
      vertex 7.5 7.7 0
      vertex 7.5 12.3 1.25
      vertex 7.5 12.3 0
    endloop
  endfacet
  facet normal 0 0 1
    outer loop
      vertex 7.5 7.7 1.25
      vertex 8.0874687032137 10.38042612793145 1.25
      vertex 7.5 12.3 1.25
    endloop
  endfacet
  facet normal 0 0 1
    outer loop
      vertex 7.5 12.3 1.25
      vertex 8.0874687032137 10.38042612793145 1.25
      vertex 8.198434911602991 10.746232693111924 1.25
    endloop
  endfacet
  facet normal 0 0 1
    outer loop
      vertex 7.5 12.3 1.25
      vertex 8.198434911602991 10.746232693111924 1.25
      vertex 8.378634256010036 11.083361954388224 1.25
    endloop
  endfacet
  facet normal 0 0 1
    outer loop
      vertex 7.5 12.3 1.25
      vertex 8.378634256010036 11.083361954388224 1.25
      vertex 8.621141776686231 11.378858223313769 1.25
    endloop
  endfacet
  facet normal 0 0 1
    outer loop
      vertex 7.5 12.3 1.25
      vertex 8.621141776686231 11.378858223313769 1.25
      vertex 8.916638045611776 11.621365743989964 1.25
    endloop
  endfacet
  facet normal 0 0 1
    outer loop
      vertex 7.5 12.3 1.25
      vertex 8.916638045611776 11.621365743989964 1.25
      vertex 9.253767306888076 11.801565088397009 1.25
    endloop
  endfacet
  facet normal 0 0 1
    outer loop
      vertex 7.5 12.3 1.25
      vertex 9.253767306888076 11.801565088397009 1.25
      vertex 9.61957387206855 11.9125312967863 1.25
    endloop
  endfacet
  facet normal 0 0 1
    outer loop
      vertex 7.5 12.3 1.25
      vertex 9.61957387206855 11.9125312967863 1.25
      vertex 10 11.95 1.25
    endloop
  endfacet
  facet normal 0 0 -1
    outer loop
      vertex 7.5 7.7 0
      vertex 7.5 12.3 0
      vertex 21.3 12.3 0
    endloop
  endfacet
  facet normal 0 0 1
    outer loop
      vertex 16.998434911602992 9.253767306888076 1.25
      vertex 11.801565088397009 10.746232693111924 1.25
      vertex 11.9125312967863 10.38042612793145 1.25
    endloop
  endfacet
  facet normal 0 0 1
    outer loop
      vertex 11.801565088397009 10.746232693111924 1.25
      vertex 17.17863425601004 11.083361954388224 1.25
      vertex 11.621365743989964 11.083361954388224 1.25
    endloop
  endfacet
  facet normal 0 1 0
    outer loop
      vertex 7.5 12.3 0
      vertex 7.5 12.3 1.25
      vertex 21.3 12.3 0
    endloop
  endfacet
  facet normal 0 0 1
    outer loop
      vertex 11.621365743989964 11.083361954388224 1.25
      vertex 17.17863425601004 11.083361954388224 1.25
      vertex 11.378858223313769 11.378858223313769 1.25
    endloop
  endfacet
  facet normal 0 0 1
    outer loop
      vertex 11.083361954388224 11.621365743989964 1.25
      vertex 11.378858223313769 11.378858223313769 1.25
      vertex 17.716638045611777 11.621365743989964 1.25
    endloop
  endfacet
  facet normal 0 0 1
    outer loop
      vertex 11.083361954388224 11.621365743989964 1.25
      vertex 17.716638045611777 11.621365743989964 1.25
      vertex 10.746232693111924 11.801565088397009 1.25
    endloop
  endfacet
  facet normal 0 0 1
    outer loop
      vertex 10.38042612793145 11.9125312967863 1.25
      vertex 10.746232693111924 11.801565088397009 1.25
      vertex 18.053767306888076 11.801565088397009 1.25
    endloop
  endfacet
  facet normal 0 0 1
    outer loop
      vertex 7.5 12.3 1.25
      vertex 10 11.95 1.25
      vertex 21.3 12.3 1.25
    endloop
  endfacet
  facet normal 0 0 1
    outer loop
      vertex 21.3 12.3 1.25
      vertex 10 11.95 1.25
      vertex 10.38042612793145 11.9125312967863 1.25
    endloop
  endfacet
  facet normal 0 -1 0
    outer loop
      vertex 7.5 7.7 0
      vertex 21.3 7.7 0
      vertex 21.3 7.7 1.25
    endloop
  endfacet
  facet normal 0 0 1
    outer loop
      vertex 7.5 7.7 1.25
      vertex 18.8 8.05 1.25
      vertex 18.41957387206855 8.0874687032137 1.25
    endloop
  endfacet
  facet normal 0 0 1
    outer loop
      vertex 7.5 7.7 1.25
      vertex 21.3 7.7 1.25
      vertex 18.8 8.05 1.25
    endloop
  endfacet
  facet normal 0 0 1
    outer loop
      vertex 10.746232693111924 8.198434911602991 1.25
      vertex 18.41957387206855 8.0874687032137 1.25
      vertex 18.053767306888076 8.198434911602991 1.25
    endloop
  endfacet
  facet normal 0 0 1
    outer loop
      vertex 11.083361954388224 8.378634256010036 1.25
      vertex 18.053767306888076 8.198434911602991 1.25
      vertex 17.716638045611777 8.378634256010036 1.25
    endloop
  endfacet
  facet normal 0 0 1
    outer loop
      vertex 11.378858223313769 8.621141776686231 1.25
      vertex 17.716638045611777 8.378634256010036 1.25
      vertex 17.421141776686234 8.621141776686231 1.25
    endloop
  endfacet
  facet normal 0 0 1
    outer loop
      vertex 11.621365743989964 8.916638045611776 1.25
      vertex 17.421141776686234 8.621141776686231 1.25
      vertex 17.17863425601004 8.916638045611776 1.25
    endloop
  endfacet
  facet normal 0 0 -1
    outer loop
      vertex 7.5 7.7 0
      vertex 21.3 12.3 0
      vertex 21.3 7.7 0
    endloop
  endfacet
  facet normal 0 0 1
    outer loop
      vertex 16.998434911602992 9.253767306888076 1.25
      vertex 11.621365743989964 8.916638045611776 1.25
      vertex 17.17863425601004 8.916638045611776 1.25
    endloop
  endfacet
  facet normal 0 0 1
    outer loop
      vertex 11.801565088397009 10.746232693111924 1.25
      vertex 16.998434911602992 9.253767306888076 1.25
      vertex 16.887468703213703 9.61957387206855 1.25
    endloop
  endfacet
  facet normal 0 0 1
    outer loop
      vertex 21.3 7.7 1.25
      vertex 19.18042612793145 8.0874687032137 1.25
      vertex 18.8 8.05 1.25
    endloop
  endfacet
  facet normal 0 0 1
    outer loop
      vertex 21.3 7.7 1.25
      vertex 19.546232693111925 8.198434911602991 1.25
      vertex 19.18042612793145 8.0874687032137 1.25
    endloop
  endfacet
  facet normal 0 0 1
    outer loop
      vertex 21.3 7.7 1.25
      vertex 19.883361954388224 8.378634256010036 1.25
      vertex 19.546232693111925 8.198434911602991 1.25
    endloop
  endfacet
  facet normal 0 0 1
    outer loop
      vertex 21.3 7.7 1.25
      vertex 20.178858223313767 8.621141776686231 1.25
      vertex 19.883361954388224 8.378634256010036 1.25
    endloop
  endfacet
  facet normal 0 0 1
    outer loop
      vertex 21.3 7.7 1.25
      vertex 20.421365743989963 8.916638045611776 1.25
      vertex 20.178858223313767 8.621141776686231 1.25
    endloop
  endfacet
  facet normal 0 0 1
    outer loop
      vertex 21.3 7.7 1.25
      vertex 20.60156508839701 9.253767306888076 1.25
      vertex 20.421365743989963 8.916638045611776 1.25
    endloop
  endfacet
  facet normal 1 0 0
    outer loop
      vertex 21.3 7.7 0
      vertex 21.3 12.3 0
      vertex 21.3 7.7 1.25
    endloop
  endfacet
  facet normal 0 0 1
    outer loop
      vertex 21.3 7.7 1.25
      vertex 20.7125312967863 9.61957387206855 1.25
      vertex 20.60156508839701 9.253767306888076 1.25
    endloop
  endfacet
  facet normal 0 0 1
    outer loop
      vertex 21.3 7.7 1.25
      vertex 21.3 12.3 1.25
      vertex 20.7125312967863 9.61957387206855 1.25
    endloop
  endfacet
  facet normal 0 0 1
    outer loop
      vertex 11.801565088397009 10.746232693111924 1.25
      vertex 16.887468703213703 9.61957387206855 1.25
      vertex 16.85 10 1.25
    endloop
  endfacet
  facet normal 0 0 1
    outer loop
      vertex 11.801565088397009 10.746232693111924 1.25
      vertex 16.85 10 1.25
      vertex 16.887468703213703 10.38042612793145 1.25
    endloop
  endfacet
  facet normal 0 0 1
    outer loop
      vertex 11.801565088397009 10.746232693111924 1.25
      vertex 16.887468703213703 10.38042612793145 1.25
      vertex 16.998434911602992 10.746232693111924 1.25
    endloop
  endfacet
  facet normal 0 0 1
    outer loop
      vertex 11.801565088397009 10.746232693111924 1.25
      vertex 16.998434911602992 10.746232693111924 1.25
      vertex 17.17863425601004 11.083361954388224 1.25
    endloop
  endfacet
  facet normal 0 0 1
    outer loop
      vertex 11.378858223313769 11.378858223313769 1.25
      vertex 17.17863425601004 11.083361954388224 1.25
      vertex 17.421141776686234 11.378858223313769 1.25
    endloop
  endfacet
  facet normal 0 0 1
    outer loop
      vertex 11.378858223313769 11.378858223313769 1.25
      vertex 17.421141776686234 11.378858223313769 1.25
      vertex 17.716638045611777 11.621365743989964 1.25
    endloop
  endfacet
  facet normal 0 0 1
    outer loop
      vertex 10.746232693111924 11.801565088397009 1.25
      vertex 17.716638045611777 11.621365743989964 1.25
      vertex 18.053767306888076 11.801565088397009 1.25
    endloop
  endfacet
  facet normal 0 0 1
    outer loop
      vertex 10.38042612793145 11.9125312967863 1.25
      vertex 18.053767306888076 11.801565088397009 1.25
      vertex 18.41957387206855 11.9125312967863 1.25
    endloop
  endfacet
  facet normal 0 1 0
    outer loop
      vertex 7.5 12.3 1.25
      vertex 21.3 12.3 1.25
      vertex 21.3 12.3 0
    endloop
  endfacet
  facet normal 0 0 1
    outer loop
      vertex 21.3 12.3 1.25
      vertex 10.38042612793145 11.9125312967863 1.25
      vertex 18.41957387206855 11.9125312967863 1.25
    endloop
  endfacet
  facet normal 1 0 0
    outer loop
      vertex 21.3 7.7 1.25
      vertex 21.3 12.3 0
      vertex 21.3 12.3 1.25
    endloop
  endfacet
  facet normal 0 0 1
    outer loop
      vertex 21.3 12.3 1.25
      vertex 20.75 10 1.25
      vertex 20.7125312967863 9.61957387206855 1.25
    endloop
  endfacet
  facet normal 0 0 1
    outer loop
      vertex 21.3 12.3 1.25
      vertex 20.7125312967863 10.38042612793145 1.25
      vertex 20.75 10 1.25
    endloop
  endfacet
  facet normal 0 0 1
    outer loop
      vertex 21.3 12.3 1.25
      vertex 20.60156508839701 10.746232693111924 1.25
      vertex 20.7125312967863 10.38042612793145 1.25
    endloop
  endfacet
  facet normal 0 0 1
    outer loop
      vertex 21.3 12.3 1.25
      vertex 18.41957387206855 11.9125312967863 1.25
      vertex 18.8 11.95 1.25
    endloop
  endfacet
  facet normal 0 0 1
    outer loop
      vertex 21.3 12.3 1.25
      vertex 20.421365743989963 11.083361954388224 1.25
      vertex 20.60156508839701 10.746232693111924 1.25
    endloop
  endfacet
  facet normal 0 0 1
    outer loop
      vertex 21.3 12.3 1.25
      vertex 20.178858223313767 11.378858223313769 1.25
      vertex 20.421365743989963 11.083361954388224 1.25
    endloop
  endfacet
  facet normal 0 0 1
    outer loop
      vertex 21.3 12.3 1.25
      vertex 19.18042612793145 11.9125312967863 1.25
      vertex 19.546232693111925 11.801565088397009 1.25
    endloop
  endfacet
  facet normal 0 0 1
    outer loop
      vertex 21.3 12.3 1.25
      vertex 19.546232693111925 11.801565088397009 1.25
      vertex 19.883361954388224 11.621365743989964 1.25
    endloop
  endfacet
  facet normal 0 0 1
    outer loop
      vertex 21.3 12.3 1.25
      vertex 18.8 11.95 1.25
      vertex 19.18042612793145 11.9125312967863 1.25
    endloop
  endfacet
  facet normal 0 0 1
    outer loop
      vertex 21.3 12.3 1.25
      vertex 19.883361954388224 11.621365743989964 1.25
      vertex 20.178858223313767 11.378858223313769 1.25
    endloop
  endfacet
endsolid OpenSCAD_Model
