solid OpenSCAD_Model
  facet normal -0.4713967368260004 -0.8819212643483536 0
    outer loop
      vertex 9.244200221078948 8.175337923290208 3
      vertex 8.902748789786285 8.357847515702474 1.25
      vertex 9.244200221078948 8.175337923290208 1.25
    endloop
  endfacet
  facet normal -0.7730104533627373 -0.6343932841636448 0
    outer loop
      vertex 8.357847515702474 8.902748789786285 3
      vertex 8.357847515702474 8.902748789786285 1.25
      vertex 8.603464107156569 8.603464107156569 1.25
    endloop
  endfacet
  facet normal -0.6343932841636448 -0.7730104533627373 0
    outer loop
      vertex 8.902748789786285 8.357847515702474 3
      vertex 8.603464107156569 8.603464107156569 1.25
      vertex 8.902748789786285 8.357847515702474 1.25
    endloop
  endfacet
  facet normal -0.09801714032956133 -0.9951847266721968 0
    outer loop
      vertex 10 8.025 3
      vertex 9.614696614018147 8.06294907120362 1.25
      vertex 10 8.025 1.25
    endloop
  endfacet
  facet normal -0.29028467725445883 -0.9569403357322099 0
    outer loop
      vertex 9.614696614018147 8.06294907120362 3
      vertex 9.244200221078948 8.175337923290208 1.25
      vertex 9.614696614018147 8.06294907120362 1.25
    endloop
  endfacet
  facet normal 0.09801714032956133 -0.9951847266721968 0
    outer loop
      vertex 10.385303385981853 8.06294907120362 3
      vertex 10 8.025 1.25
      vertex 10.385303385981853 8.06294907120362 1.25
    endloop
  endfacet
  facet normal 0.29028467725445883 -0.9569403357322099 0
    outer loop
      vertex 10.755799778921052 8.175337923290208 3
      vertex 10.385303385981853 8.06294907120362 1.25
      vertex 10.755799778921052 8.175337923290208 1.25
    endloop
  endfacet
  facet normal 0.4713967368260004 -0.8819212643483536 0
    outer loop
      vertex 11.097251210213715 8.357847515702474 3
      vertex 10.755799778921052 8.175337923290208 1.25
      vertex 11.097251210213715 8.357847515702474 1.25
    endloop
  endfacet
  facet normal -0.29028467725445883 -0.9569403357322099 0
    outer loop
      vertex 9.614696614018147 8.06294907120362 3
      vertex 9.244200221078948 8.175337923290208 3
      vertex 9.244200221078948 8.175337923290208 1.25
    endloop
  endfacet
  facet normal -0.4713967368260004 -0.8819212643483536 0
    outer loop
      vertex 9.244200221078948 8.175337923290208 3
      vertex 8.902748789786285 8.357847515702474 3
      vertex 8.902748789786285 8.357847515702474 1.25
    endloop
  endfacet
  facet normal -0.7730104533627373 -0.6343932841636448 0
    outer loop
      vertex 8.603464107156569 8.603464107156569 3
      vertex 8.357847515702474 8.902748789786285 3
      vertex 8.603464107156569 8.603464107156569 1.25
    endloop
  endfacet
  facet normal -0.6343932841636448 -0.7730104533627373 0
    outer loop
      vertex 8.902748789786285 8.357847515702474 3
      vertex 8.603464107156569 8.603464107156569 3
      vertex 8.603464107156569 8.603464107156569 1.25
    endloop
  endfacet
  facet normal -0.09801714032956133 -0.9951847266721968 0
    outer loop
      vertex 9.614696614018147 8.06294907120362 3
      vertex 9.614696614018147 8.06294907120362 1.25
      vertex 10 8.025 3
    endloop
  endfacet
  facet normal 0.09801714032956133 -0.9951847266721968 0
    outer loop
      vertex 10 8.025 3
      vertex 10 8.025 1.25
      vertex 10.385303385981853 8.06294907120362 3
    endloop
  endfacet
  facet normal 0.29028467725445883 -0.9569403357322099 0
    outer loop
      vertex 10.385303385981853 8.06294907120362 3
      vertex 10.385303385981853 8.06294907120362 1.25
      vertex 10.755799778921052 8.175337923290208 3
    endloop
  endfacet
  facet normal 0.4713967368260004 -0.8819212643483536 0
    outer loop
      vertex 10.755799778921052 8.175337923290208 3
      vertex 10.755799778921052 8.175337923290208 1.25
      vertex 11.097251210213715 8.357847515702474 3
    endloop
  endfacet
  facet normal -0.8819212643483536 -0.4713967368260004 0
    outer loop
      vertex 8.175337923290208 9.244200221078948 3
      vertex 8.175337923290208 9.244200221078948 1.25
      vertex 8.357847515702474 8.902748789786285 1.25
    endloop
  endfacet
  facet normal -0.9569403357322099 -0.29028467725445883 0
    outer loop
      vertex 8.06294907120362 9.614696614018147 3
      vertex 8.06294907120362 9.614696614018147 1.25
      vertex 8.175337923290208 9.244200221078948 1.25
    endloop
  endfacet
  facet normal -0.9951847266721968 -0.09801714032956133 0
    outer loop
      vertex 8.025 10 3
      vertex 8.025 10 1.25
      vertex 8.06294907120362 9.614696614018147 1.25
    endloop
  endfacet
  facet normal -0.8819212643483536 -0.4713967368260004 0
    outer loop
      vertex 8.357847515702474 8.902748789786285 3
      vertex 8.175337923290208 9.244200221078948 3
      vertex 8.357847515702474 8.902748789786285 1.25
    endloop
  endfacet
  facet normal -0.9569403357322099 -0.29028467725445883 0
    outer loop
      vertex 8.175337923290208 9.244200221078948 3
      vertex 8.06294907120362 9.614696614018147 3
      vertex 8.175337923290208 9.244200221078948 1.25
    endloop
  endfacet
  facet normal 0 0 1
    outer loop
      vertex 9.244200221078948 8.175337923290208 3
      vertex 8.902748789786285 11.642152484297526 3
      vertex 8.902748789786285 8.357847515702474 3
    endloop
  endfacet
  facet normal 0 0 1
    outer loop
      vertex 9.614696614018147 8.06294907120362 3
      vertex 9.244200221078948 11.824662076709792 3
      vertex 9.244200221078948 8.175337923290208 3
    endloop
  endfacet
  facet normal -0.9951847266721968 -0.09801714032956133 0
    outer loop
      vertex 8.06294907120362 9.614696614018147 3
      vertex 8.025 10 3
      vertex 8.06294907120362 9.614696614018147 1.25
    endloop
  endfacet
  facet normal 0 0 1
    outer loop
      vertex 8.603464107156569 8.603464107156569 3
      vertex 8.357847515702474 11.097251210213715 3
      vertex 8.357847515702474 8.902748789786285 3
    endloop
  endfacet
  facet normal 0 0 1
    outer loop
      vertex 8.357847515702474 8.902748789786285 3
      vertex 8.175337923290208 10.755799778921052 3
      vertex 8.175337923290208 9.244200221078948 3
    endloop
  endfacet
  facet normal 0 0 1
    outer loop
      vertex 8.175337923290208 9.244200221078948 3
      vertex 8.06294907120362 10.385303385981853 3
      vertex 8.06294907120362 9.614696614018147 3
    endloop
  endfacet
  facet normal 0 0 1
    outer loop
      vertex 8.902748789786285 8.357847515702474 3
      vertex 8.603464107156569 11.396535892843431 3
      vertex 8.603464107156569 8.603464107156569 3
    endloop
  endfacet
  facet normal 0 0 1
    outer loop
      vertex 9.614696614018147 8.06294907120362 3
      vertex 10 8.025 3
      vertex 9.614696614018147 11.93705092879638 3
    endloop
  endfacet
  facet normal 0 0 1
    outer loop
      vertex 10 8.025 3
      vertex 10.385303385981853 8.06294907120362 3
      vertex 10 11.975 3
    endloop
  endfacet
  facet normal 0 0 1
    outer loop
      vertex 10.385303385981853 8.06294907120362 3
      vertex 10.755799778921052 8.175337923290208 3
      vertex 10.385303385981853 11.93705092879638 3
    endloop
  endfacet
  facet normal 0 0 1
    outer loop
      vertex 10.755799778921052 8.175337923290208 3
      vertex 11.097251210213715 8.357847515702474 3
      vertex 10.755799778921052 11.824662076709792 3
    endloop
  endfacet
  facet normal 0.6343932841636448 -0.7730104533627373 0
    outer loop
      vertex 11.396535892843431 8.603464107156569 3
      vertex 11.097251210213715 8.357847515702474 1.25
      vertex 11.396535892843431 8.603464107156569 1.25
    endloop
  endfacet
  facet normal 0.7730104533627373 -0.6343932841636448 0
    outer loop
      vertex 11.396535892843431 8.603464107156569 3
      vertex 11.396535892843431 8.603464107156569 1.25
      vertex 11.642152484297526 8.902748789786285 1.25
    endloop
  endfacet
  facet normal 0.6343932841636448 -0.7730104533627373 0
    outer loop
      vertex 11.097251210213715 8.357847515702474 3
      vertex 11.097251210213715 8.357847515702474 1.25
      vertex 11.396535892843431 8.603464107156569 3
    endloop
  endfacet
  facet normal 0.7730104533627373 -0.6343932841636448 0
    outer loop
      vertex 11.396535892843431 8.603464107156569 3
      vertex 11.642152484297526 8.902748789786285 1.25
      vertex 11.642152484297526 8.902748789786285 3
    endloop
  endfacet
  facet normal 0.8819212643483536 -0.4713967368260004 0
    outer loop
      vertex 11.642152484297526 8.902748789786285 3
      vertex 11.642152484297526 8.902748789786285 1.25
      vertex 11.824662076709792 9.244200221078948 1.25
    endloop
  endfacet
  facet normal 0.9569403357322099 -0.29028467725445883 0
    outer loop
      vertex 11.824662076709792 9.244200221078948 3
      vertex 11.824662076709792 9.244200221078948 1.25
      vertex 11.93705092879638 9.614696614018147 1.25
    endloop
  endfacet
  facet normal 0.9951847266721968 -0.09801714032956133 0
    outer loop
      vertex 11.93705092879638 9.614696614018147 3
      vertex 11.93705092879638 9.614696614018147 1.25
      vertex 11.975 10 1.25
    endloop
  endfacet
  facet normal 0.8819212643483536 -0.4713967368260004 0
    outer loop
      vertex 11.642152484297526 8.902748789786285 3
      vertex 11.824662076709792 9.244200221078948 1.25
      vertex 11.824662076709792 9.244200221078948 3
    endloop
  endfacet
  facet normal 0.9569403357322099 -0.29028467725445883 0
    outer loop
      vertex 11.824662076709792 9.244200221078948 3
      vertex 11.93705092879638 9.614696614018147 1.25
      vertex 11.93705092879638 9.614696614018147 3
    endloop
  endfacet
  facet normal 0.9951847266721968 -0.09801714032956133 0
    outer loop
      vertex 11.93705092879638 9.614696614018147 3
      vertex 11.975 10 1.25
      vertex 11.975 10 3
    endloop
  endfacet
  facet normal 0 0 1
    outer loop
      vertex 11.097251210213715 8.357847515702474 3
      vertex 11.396535892843431 8.603464107156569 3
      vertex 11.097251210213715 11.642152484297526 3
    endloop
  endfacet
  facet normal 0 0 1
    outer loop
      vertex 11.396535892843431 8.603464107156569 3
      vertex 11.642152484297526 8.902748789786285 3
      vertex 11.396535892843431 11.396535892843431 3
    endloop
  endfacet
  facet normal 0 0 1
    outer loop
      vertex 11.642152484297526 8.902748789786285 3
      vertex 11.824662076709792 9.244200221078948 3
      vertex 11.642152484297526 11.097251210213715 3
    endloop
  endfacet
  facet normal 0 0 1
    outer loop
      vertex 11.824662076709792 9.244200221078948 3
      vertex 11.93705092879638 9.614696614018147 3
      vertex 11.824662076709792 10.755799778921052 3
    endloop
  endfacet
  facet normal -0.9951847266721968 0.09801714032956133 0
    outer loop
      vertex 8.06294907120362 10.385303385981853 3
      vertex 8.06294907120362 10.385303385981853 1.25
      vertex 8.025 10 1.25
    endloop
  endfacet
  facet normal -0.9569403357322099 0.29028467725445883 0
    outer loop
      vertex 8.175337923290208 10.755799778921052 3
      vertex 8.175337923290208 10.755799778921052 1.25
      vertex 8.06294907120362 10.385303385981853 1.25
    endloop
  endfacet
  facet normal -0.8819212643483536 0.4713967368260004 0
    outer loop
      vertex 8.357847515702474 11.097251210213715 3
      vertex 8.357847515702474 11.097251210213715 1.25
      vertex 8.175337923290208 10.755799778921052 1.25
    endloop
  endfacet
  facet normal -0.9951847266721968 0.09801714032956133 0
    outer loop
      vertex 8.025 10 3
      vertex 8.06294907120362 10.385303385981853 3
      vertex 8.025 10 1.25
    endloop
  endfacet
  facet normal -0.9569403357322099 0.29028467725445883 0
    outer loop
      vertex 8.06294907120362 10.385303385981853 3
      vertex 8.175337923290208 10.755799778921052 3
      vertex 8.06294907120362 10.385303385981853 1.25
    endloop
  endfacet
  facet normal 0 0 1
    outer loop
      vertex 8.06294907120362 9.614696614018147 3
      vertex 8.06294907120362 10.385303385981853 3
      vertex 8.025 10 3
    endloop
  endfacet
  facet normal 0 0 1
    outer loop
      vertex 8.175337923290208 9.244200221078948 3
      vertex 8.175337923290208 10.755799778921052 3
      vertex 8.06294907120362 10.385303385981853 3
    endloop
  endfacet
  facet normal 0 0 1
    outer loop
      vertex 8.357847515702474 8.902748789786285 3
      vertex 8.357847515702474 11.097251210213715 3
      vertex 8.175337923290208 10.755799778921052 3
    endloop
  endfacet
  facet normal 0 0 1
    outer loop
      vertex 8.603464107156569 8.603464107156569 3
      vertex 8.603464107156569 11.396535892843431 3
      vertex 8.357847515702474 11.097251210213715 3
    endloop
  endfacet
  facet normal 0 0 1
    outer loop
      vertex 8.902748789786285 8.357847515702474 3
      vertex 8.902748789786285 11.642152484297526 3
      vertex 8.603464107156569 11.396535892843431 3
    endloop
  endfacet
  facet normal 0 0 1
    outer loop
      vertex 9.244200221078948 8.175337923290208 3
      vertex 9.244200221078948 11.824662076709792 3
      vertex 8.902748789786285 11.642152484297526 3
    endloop
  endfacet
  facet normal -0.8819212643483536 0.4713967368260004 0
    outer loop
      vertex 8.175337923290208 10.755799778921052 3
      vertex 8.357847515702474 11.097251210213715 3
      vertex 8.175337923290208 10.755799778921052 1.25
    endloop
  endfacet
  facet normal 0 0 1
    outer loop
      vertex 9.614696614018147 8.06294907120362 3
      vertex 9.614696614018147 11.93705092879638 3
      vertex 9.244200221078948 11.824662076709792 3
    endloop
  endfacet
  facet normal 0 0 1
    outer loop
      vertex 10 8.025 3
      vertex 10 11.975 3
      vertex 9.614696614018147 11.93705092879638 3
    endloop
  endfacet
  facet normal 0 0 1
    outer loop
      vertex 10.385303385981853 8.06294907120362 3
      vertex 10.385303385981853 11.93705092879638 3
      vertex 10 11.975 3
    endloop
  endfacet
  facet normal 0 0 1
    outer loop
      vertex 10.755799778921052 8.175337923290208 3
      vertex 10.755799778921052 11.824662076709792 3
      vertex 10.385303385981853 11.93705092879638 3
    endloop
  endfacet
  facet normal 0 0 1
    outer loop
      vertex 11.097251210213715 8.357847515702474 3
      vertex 11.097251210213715 11.642152484297526 3
      vertex 10.755799778921052 11.824662076709792 3
    endloop
  endfacet
  facet normal -0.7730104533627373 0.6343932841636448 0
    outer loop
      vertex 8.603464107156569 11.396535892843431 3
      vertex 8.603464107156569 11.396535892843431 1.25
      vertex 8.357847515702474 11.097251210213715 1.25
    endloop
  endfacet
  facet normal -0.6343932841636448 0.7730104533627373 0
    outer loop
      vertex 8.603464107156569 11.396535892843431 3
      vertex 8.902748789786285 11.642152484297526 1.25
      vertex 8.603464107156569 11.396535892843431 1.25
    endloop
  endfacet
  facet normal -0.4713967368260004 0.8819212643483536 0
    outer loop
      vertex 8.902748789786285 11.642152484297526 3
      vertex 9.244200221078948 11.824662076709792 1.25
      vertex 8.902748789786285 11.642152484297526 1.25
    endloop
  endfacet
  facet normal -0.29028467725445883 0.9569403357322099 0
    outer loop
      vertex 9.244200221078948 11.824662076709792 3
      vertex 9.614696614018147 11.93705092879638 1.25
      vertex 9.244200221078948 11.824662076709792 1.25
    endloop
  endfacet
  facet normal -0.09801714032956133 0.9951847266721968 0
    outer loop
      vertex 9.614696614018147 11.93705092879638 3
      vertex 10 11.975 1.25
      vertex 9.614696614018147 11.93705092879638 1.25
    endloop
  endfacet
  facet normal 0.09801714032956133 0.9951847266721968 0
    outer loop
      vertex 10 11.975 3
      vertex 10.385303385981853 11.93705092879638 1.25
      vertex 10 11.975 1.25
    endloop
  endfacet
  facet normal 0.29028467725445883 0.9569403357322099 0
    outer loop
      vertex 10.385303385981853 11.93705092879638 3
      vertex 10.755799778921052 11.824662076709792 1.25
      vertex 10.385303385981853 11.93705092879638 1.25
    endloop
  endfacet
  facet normal 0.4713967368260004 0.8819212643483536 0
    outer loop
      vertex 10.755799778921052 11.824662076709792 3
      vertex 11.097251210213715 11.642152484297526 1.25
      vertex 10.755799778921052 11.824662076709792 1.25
    endloop
  endfacet
  facet normal -0.7730104533627373 0.6343932841636448 0
    outer loop
      vertex 8.357847515702474 11.097251210213715 3
      vertex 8.603464107156569 11.396535892843431 3
      vertex 8.357847515702474 11.097251210213715 1.25
    endloop
  endfacet
  facet normal -0.6343932841636448 0.7730104533627373 0
    outer loop
      vertex 8.603464107156569 11.396535892843431 3
      vertex 8.902748789786285 11.642152484297526 3
      vertex 8.902748789786285 11.642152484297526 1.25
    endloop
  endfacet
  facet normal -0.4713967368260004 0.8819212643483536 0
    outer loop
      vertex 8.902748789786285 11.642152484297526 3
      vertex 9.244200221078948 11.824662076709792 3
      vertex 9.244200221078948 11.824662076709792 1.25
    endloop
  endfacet
  facet normal -0.29028467725445883 0.9569403357322099 0
    outer loop
      vertex 9.244200221078948 11.824662076709792 3
      vertex 9.614696614018147 11.93705092879638 3
      vertex 9.614696614018147 11.93705092879638 1.25
    endloop
  endfacet
  facet normal -0.09801714032956133 0.9951847266721968 0
    outer loop
      vertex 9.614696614018147 11.93705092879638 3
      vertex 10 11.975 3
      vertex 10 11.975 1.25
    endloop
  endfacet
  facet normal 0.4713967368260004 0.8819212643483536 0
    outer loop
      vertex 11.097251210213715 11.642152484297526 3
      vertex 11.097251210213715 11.642152484297526 1.25
      vertex 10.755799778921052 11.824662076709792 3
    endloop
  endfacet
  facet normal 0.29028467725445883 0.9569403357322099 0
    outer loop
      vertex 10.385303385981853 11.93705092879638 3
      vertex 10.755799778921052 11.824662076709792 3
      vertex 10.755799778921052 11.824662076709792 1.25
    endloop
  endfacet
  facet normal 0.09801714032956133 0.9951847266721968 0
    outer loop
      vertex 10 11.975 3
      vertex 10.385303385981853 11.93705092879638 3
      vertex 10.385303385981853 11.93705092879638 1.25
    endloop
  endfacet
  facet normal 0.9951847266721968 0.09801714032956133 0
    outer loop
      vertex 11.975 10 3
      vertex 11.975 10 1.25
      vertex 11.93705092879638 10.385303385981853 1.25
    endloop
  endfacet
  facet normal 0.9569403357322099 0.29028467725445883 0
    outer loop
      vertex 11.93705092879638 10.385303385981853 3
      vertex 11.93705092879638 10.385303385981853 1.25
      vertex 11.824662076709792 10.755799778921052 1.25
    endloop
  endfacet
  facet normal 0.8819212643483536 0.4713967368260004 0
    outer loop
      vertex 11.824662076709792 10.755799778921052 3
      vertex 11.824662076709792 10.755799778921052 1.25
      vertex 11.642152484297526 11.097251210213715 1.25
    endloop
  endfacet
  facet normal 0.9951847266721968 0.09801714032956133 0
    outer loop
      vertex 11.975 10 3
      vertex 11.93705092879638 10.385303385981853 1.25
      vertex 11.93705092879638 10.385303385981853 3
    endloop
  endfacet
  facet normal 0 0 1
    outer loop
      vertex 11.396535892843431 8.603464107156569 3
      vertex 11.396535892843431 11.396535892843431 3
      vertex 11.097251210213715 11.642152484297526 3
    endloop
  endfacet
  facet normal 0 0 1
    outer loop
      vertex 11.824662076709792 9.244200221078948 3
      vertex 11.824662076709792 10.755799778921052 3
      vertex 11.642152484297526 11.097251210213715 3
    endloop
  endfacet
  facet normal 0 0 1
    outer loop
      vertex 11.642152484297526 8.902748789786285 3
      vertex 11.642152484297526 11.097251210213715 3
      vertex 11.396535892843431 11.396535892843431 3
    endloop
  endfacet
  facet normal 0 0 1
    outer loop
      vertex 11.93705092879638 9.614696614018147 3
      vertex 11.975 10 3
      vertex 11.93705092879638 10.385303385981853 3
    endloop
  endfacet
  facet normal 0 0 1
    outer loop
      vertex 11.93705092879638 9.614696614018147 3
      vertex 11.93705092879638 10.385303385981853 3
      vertex 11.824662076709792 10.755799778921052 3
    endloop
  endfacet
  facet normal 0.9569403357322099 0.29028467725445883 0
    outer loop
      vertex 11.93705092879638 10.385303385981853 3
      vertex 11.824662076709792 10.755799778921052 1.25
      vertex 11.824662076709792 10.755799778921052 3
    endloop
  endfacet
  facet normal 0.8819212643483536 0.4713967368260004 0
    outer loop
      vertex 11.824662076709792 10.755799778921052 3
      vertex 11.642152484297526 11.097251210213715 1.25
      vertex 11.642152484297526 11.097251210213715 3
    endloop
  endfacet
  facet normal 0.7730104533627373 0.6343932841636448 0
    outer loop
      vertex 11.642152484297526 11.097251210213715 3
      vertex 11.642152484297526 11.097251210213715 1.25
      vertex 11.396535892843431 11.396535892843431 1.25
    endloop
  endfacet
  facet normal 0.6343932841636448 0.7730104533627373 0
    outer loop
      vertex 11.097251210213715 11.642152484297526 3
      vertex 11.396535892843431 11.396535892843431 1.25
      vertex 11.097251210213715 11.642152484297526 1.25
    endloop
  endfacet
  facet normal 0.7730104533627373 0.6343932841636448 0
    outer loop
      vertex 11.642152484297526 11.097251210213715 3
      vertex 11.396535892843431 11.396535892843431 1.25
      vertex 11.396535892843431 11.396535892843431 3
    endloop
  endfacet
  facet normal 0.6343932841636448 0.7730104533627373 0
    outer loop
      vertex 11.097251210213715 11.642152484297526 3
      vertex 11.396535892843431 11.396535892843431 3
      vertex 11.396535892843431 11.396535892843431 1.25
    endloop
  endfacet
  facet normal -0.6343932841636427 -0.7730104533627393 0
    outer loop
      vertex 17.702748789786288 8.357847515702474 3
      vertex 17.40346410715657 8.603464107156569 1.25
      vertex 17.702748789786288 8.357847515702474 1.25
    endloop
  endfacet
  facet normal -0.7730104533627373 -0.6343932841636448 0
    outer loop
      vertex 17.157847515702475 8.902748789786285 3
      vertex 17.157847515702475 8.902748789786285 1.25
      vertex 17.40346410715657 8.603464107156569 1.25
    endloop
  endfacet
  facet normal -0.6343932841636427 -0.7730104533627393 0
    outer loop
      vertex 17.40346410715657 8.603464107156569 3
      vertex 17.40346410715657 8.603464107156569 1.25
      vertex 17.702748789786288 8.357847515702474 3
    endloop
  endfacet
  facet normal -0.7730104533627373 -0.6343932841636448 0
    outer loop
      vertex 17.40346410715657 8.603464107156569 3
      vertex 17.157847515702475 8.902748789786285 3
      vertex 17.40346410715657 8.603464107156569 1.25
    endloop
  endfacet
  facet normal -0.8819212643483536 -0.4713967368260004 0
    outer loop
      vertex 16.97533792329021 9.244200221078948 3
      vertex 16.97533792329021 9.244200221078948 1.25
      vertex 17.157847515702475 8.902748789786285 1.25
    endloop
  endfacet
  facet normal -0.9569403357322086 -0.29028467725446305 0
    outer loop
      vertex 16.86294907120362 9.614696614018147 3
      vertex 16.86294907120362 9.614696614018147 1.25
      vertex 16.97533792329021 9.244200221078948 1.25
    endloop
  endfacet
  facet normal -0.9951847266721968 -0.09801714032956133 0
    outer loop
      vertex 16.825 10 3
      vertex 16.825 10 1.25
      vertex 16.86294907120362 9.614696614018147 1.25
    endloop
  endfacet
  facet normal -0.8819212643483536 -0.4713967368260004 0
    outer loop
      vertex 17.157847515702475 8.902748789786285 3
      vertex 16.97533792329021 9.244200221078948 3
      vertex 17.157847515702475 8.902748789786285 1.25
    endloop
  endfacet
  facet normal -0.9569403357322086 -0.29028467725446305 0
    outer loop
      vertex 16.97533792329021 9.244200221078948 3
      vertex 16.86294907120362 9.614696614018147 3
      vertex 16.97533792329021 9.244200221078948 1.25
    endloop
  endfacet
  facet normal -0.9951847266721968 -0.09801714032956133 0
    outer loop
      vertex 16.86294907120362 9.614696614018147 3
      vertex 16.825 10 3
      vertex 16.86294907120362 9.614696614018147 1.25
    endloop
  endfacet
  facet normal 0 0 1
    outer loop
      vertex 16.97533792329021 9.244200221078948 3
      vertex 16.86294907120362 10.385303385981853 3
      vertex 16.86294907120362 9.614696614018147 3
    endloop
  endfacet
  facet normal 0 0 1
    outer loop
      vertex 17.40346410715657 8.603464107156569 3
      vertex 17.157847515702475 11.097251210213715 3
      vertex 17.157847515702475 8.902748789786285 3
    endloop
  endfacet
  facet normal 0 0 1
    outer loop
      vertex 17.157847515702475 8.902748789786285 3
      vertex 16.97533792329021 10.755799778921052 3
      vertex 16.97533792329021 9.244200221078948 3
    endloop
  endfacet
  facet normal 0 0 1
    outer loop
      vertex 17.40346410715657 8.603464107156569 3
      vertex 17.702748789786288 8.357847515702474 3
      vertex 17.40346410715657 11.396535892843431 3
    endloop
  endfacet
  facet normal -0.47139673682600225 -0.8819212643483525 0
    outer loop
      vertex 18.04420022107895 8.175337923290208 3
      vertex 17.702748789786288 8.357847515702474 1.25
      vertex 18.04420022107895 8.175337923290208 1.25
    endloop
  endfacet
  facet normal -0.29028467725445883 -0.9569403357322099 0
    outer loop
      vertex 18.414696614018148 8.06294907120362 3
      vertex 18.04420022107895 8.175337923290208 1.25
      vertex 18.414696614018148 8.06294907120362 1.25
    endloop
  endfacet
  facet normal -0.09801714032956133 -0.9951847266721968 0
    outer loop
      vertex 18.8 8.025 3
      vertex 18.414696614018148 8.06294907120362 1.25
      vertex 18.8 8.025 1.25
    endloop
  endfacet
  facet normal 0.09801714032956133 -0.9951847266721968 0
    outer loop
      vertex 19.185303385981854 8.06294907120362 3
      vertex 18.8 8.025 1.25
      vertex 19.185303385981854 8.06294907120362 1.25
    endloop
  endfacet
  facet normal 0.29028467725445883 -0.9569403357322099 0
    outer loop
      vertex 19.555799778921052 8.175337923290208 3
      vertex 19.185303385981854 8.06294907120362 1.25
      vertex 19.555799778921052 8.175337923290208 1.25
    endloop
  endfacet
  facet normal 0.47139673682600225 -0.8819212643483525 0
    outer loop
      vertex 19.897251210213714 8.357847515702474 3
      vertex 19.555799778921052 8.175337923290208 1.25
      vertex 19.897251210213714 8.357847515702474 1.25
    endloop
  endfacet
  facet normal 0.6343932841636427 -0.7730104533627393 0
    outer loop
      vertex 20.196535892843432 8.603464107156569 3
      vertex 19.897251210213714 8.357847515702474 1.25
      vertex 20.196535892843432 8.603464107156569 1.25
    endloop
  endfacet
  facet normal 0.7730104533627373 -0.6343932841636448 0
    outer loop
      vertex 20.196535892843432 8.603464107156569 3
      vertex 20.196535892843432 8.603464107156569 1.25
      vertex 20.442152484297527 8.902748789786285 1.25
    endloop
  endfacet
  facet normal -0.09801714032956133 -0.9951847266721968 0
    outer loop
      vertex 18.414696614018148 8.06294907120362 3
      vertex 18.414696614018148 8.06294907120362 1.25
      vertex 18.8 8.025 3
    endloop
  endfacet
  facet normal -0.29028467725445883 -0.9569403357322099 0
    outer loop
      vertex 18.04420022107895 8.175337923290208 3
      vertex 18.04420022107895 8.175337923290208 1.25
      vertex 18.414696614018148 8.06294907120362 3
    endloop
  endfacet
  facet normal -0.47139673682600225 -0.8819212643483525 0
    outer loop
      vertex 18.04420022107895 8.175337923290208 3
      vertex 17.702748789786288 8.357847515702474 3
      vertex 17.702748789786288 8.357847515702474 1.25
    endloop
  endfacet
  facet normal 0.09801714032956133 -0.9951847266721968 0
    outer loop
      vertex 18.8 8.025 3
      vertex 18.8 8.025 1.25
      vertex 19.185303385981854 8.06294907120362 3
    endloop
  endfacet
  facet normal 0.29028467725445883 -0.9569403357322099 0
    outer loop
      vertex 19.185303385981854 8.06294907120362 3
      vertex 19.185303385981854 8.06294907120362 1.25
      vertex 19.555799778921052 8.175337923290208 3
    endloop
  endfacet
  facet normal 0.47139673682600225 -0.8819212643483525 0
    outer loop
      vertex 19.555799778921052 8.175337923290208 3
      vertex 19.555799778921052 8.175337923290208 1.25
      vertex 19.897251210213714 8.357847515702474 3
    endloop
  endfacet
  facet normal 0.6343932841636427 -0.7730104533627393 0
    outer loop
      vertex 19.897251210213714 8.357847515702474 3
      vertex 19.897251210213714 8.357847515702474 1.25
      vertex 20.196535892843432 8.603464107156569 3
    endloop
  endfacet
  facet normal 0.7730104533627373 -0.6343932841636448 0
    outer loop
      vertex 20.196535892843432 8.603464107156569 3
      vertex 20.442152484297527 8.902748789786285 1.25
      vertex 20.442152484297527 8.902748789786285 3
    endloop
  endfacet
  facet normal 0.8819212643483536 -0.4713967368260004 0
    outer loop
      vertex 20.442152484297527 8.902748789786285 3
      vertex 20.442152484297527 8.902748789786285 1.25
      vertex 20.624662076709793 9.244200221078948 1.25
    endloop
  endfacet
  facet normal 0.9569403357322086 -0.29028467725446305 0
    outer loop
      vertex 20.624662076709793 9.244200221078948 3
      vertex 20.624662076709793 9.244200221078948 1.25
      vertex 20.737050928796382 9.614696614018147 1.25
    endloop
  endfacet
  facet normal 0.9951847266721968 -0.09801714032956133 0
    outer loop
      vertex 20.737050928796382 9.614696614018147 3
      vertex 20.737050928796382 9.614696614018147 1.25
      vertex 20.775000000000002 10 1.25
    endloop
  endfacet
  facet normal 0 0 1
    outer loop
      vertex 18.04420022107895 8.175337923290208 3
      vertex 17.702748789786288 11.642152484297526 3
      vertex 17.702748789786288 8.357847515702474 3
    endloop
  endfacet
  facet normal 0 0 1
    outer loop
      vertex 18.04420022107895 8.175337923290208 3
      vertex 18.414696614018148 8.06294907120362 3
      vertex 18.04420022107895 11.824662076709792 3
    endloop
  endfacet
  facet normal 0 0 1
    outer loop
      vertex 18.414696614018148 8.06294907120362 3
      vertex 18.8 8.025 3
      vertex 18.414696614018148 11.93705092879638 3
    endloop
  endfacet
  facet normal 0 0 1
    outer loop
      vertex 18.8 8.025 3
      vertex 19.185303385981854 8.06294907120362 3
      vertex 18.8 11.975 3
    endloop
  endfacet
  facet normal 0 0 1
    outer loop
      vertex 19.185303385981854 8.06294907120362 3
      vertex 19.555799778921052 8.175337923290208 3
      vertex 19.185303385981854 11.93705092879638 3
    endloop
  endfacet
  facet normal 0.8819212643483536 -0.4713967368260004 0
    outer loop
      vertex 20.442152484297527 8.902748789786285 3
      vertex 20.624662076709793 9.244200221078948 1.25
      vertex 20.624662076709793 9.244200221078948 3
    endloop
  endfacet
  facet normal 0.9569403357322086 -0.29028467725446305 0
    outer loop
      vertex 20.624662076709793 9.244200221078948 3
      vertex 20.737050928796382 9.614696614018147 1.25
      vertex 20.737050928796382 9.614696614018147 3
    endloop
  endfacet
  facet normal 0.9951847266721968 -0.09801714032956133 0
    outer loop
      vertex 20.737050928796382 9.614696614018147 3
      vertex 20.775000000000002 10 1.25
      vertex 20.775000000000002 10 3
    endloop
  endfacet
  facet normal 0 0 1
    outer loop
      vertex 19.555799778921052 8.175337923290208 3
      vertex 19.897251210213714 8.357847515702474 3
      vertex 19.555799778921052 11.824662076709792 3
    endloop
  endfacet
  facet normal 0 0 1
    outer loop
      vertex 19.897251210213714 8.357847515702474 3
      vertex 20.196535892843432 8.603464107156569 3
      vertex 19.897251210213714 11.642152484297526 3
    endloop
  endfacet
  facet normal 0 0 1
    outer loop
      vertex 20.196535892843432 8.603464107156569 3
      vertex 20.442152484297527 8.902748789786285 3
      vertex 20.196535892843432 11.396535892843431 3
    endloop
  endfacet
  facet normal 0 0 1
    outer loop
      vertex 20.442152484297527 8.902748789786285 3
      vertex 20.624662076709793 9.244200221078948 3
      vertex 20.442152484297527 11.097251210213715 3
    endloop
  endfacet
  facet normal 0 0 1
    outer loop
      vertex 20.624662076709793 9.244200221078948 3
      vertex 20.737050928796382 9.614696614018147 3
      vertex 20.624662076709793 10.755799778921052 3
    endloop
  endfacet
  facet normal -0.9951847266721968 0.09801714032956133 0
    outer loop
      vertex 16.86294907120362 10.385303385981853 3
      vertex 16.86294907120362 10.385303385981853 1.25
      vertex 16.825 10 1.25
    endloop
  endfacet
  facet normal -0.9569403357322086 0.29028467725446305 0
    outer loop
      vertex 16.97533792329021 10.755799778921052 3
      vertex 16.97533792329021 10.755799778921052 1.25
      vertex 16.86294907120362 10.385303385981853 1.25
    endloop
  endfacet
  facet normal -0.8819212643483536 0.4713967368260004 0
    outer loop
      vertex 17.157847515702475 11.097251210213715 3
      vertex 17.157847515702475 11.097251210213715 1.25
      vertex 16.97533792329021 10.755799778921052 1.25
    endloop
  endfacet
  facet normal -0.9951847266721968 0.09801714032956133 0
    outer loop
      vertex 16.825 10 3
      vertex 16.86294907120362 10.385303385981853 3
      vertex 16.825 10 1.25
    endloop
  endfacet
  facet normal -0.9569403357322086 0.29028467725446305 0
    outer loop
      vertex 16.86294907120362 10.385303385981853 3
      vertex 16.97533792329021 10.755799778921052 3
      vertex 16.86294907120362 10.385303385981853 1.25
    endloop
  endfacet
  facet normal 0 0 1
    outer loop
      vertex 16.86294907120362 9.614696614018147 3
      vertex 16.86294907120362 10.385303385981853 3
      vertex 16.825 10 3
    endloop
  endfacet
  facet normal 0 0 1
    outer loop
      vertex 16.97533792329021 9.244200221078948 3
      vertex 16.97533792329021 10.755799778921052 3
      vertex 16.86294907120362 10.385303385981853 3
    endloop
  endfacet
  facet normal 0 0 1
    outer loop
      vertex 17.157847515702475 8.902748789786285 3
      vertex 17.157847515702475 11.097251210213715 3
      vertex 16.97533792329021 10.755799778921052 3
    endloop
  endfacet
  facet normal 0 0 1
    outer loop
      vertex 17.40346410715657 8.603464107156569 3
      vertex 17.40346410715657 11.396535892843431 3
      vertex 17.157847515702475 11.097251210213715 3
    endloop
  endfacet
  facet normal 0 0 1
    outer loop
      vertex 17.702748789786288 8.357847515702474 3
      vertex 17.702748789786288 11.642152484297526 3
      vertex 17.40346410715657 11.396535892843431 3
    endloop
  endfacet
  facet normal -0.8819212643483536 0.4713967368260004 0
    outer loop
      vertex 16.97533792329021 10.755799778921052 3
      vertex 17.157847515702475 11.097251210213715 3
      vertex 16.97533792329021 10.755799778921052 1.25
    endloop
  endfacet
  facet normal -0.7730104533627373 0.6343932841636448 0
    outer loop
      vertex 17.40346410715657 11.396535892843431 3
      vertex 17.40346410715657 11.396535892843431 1.25
      vertex 17.157847515702475 11.097251210213715 1.25
    endloop
  endfacet
  facet normal -0.6343932841636427 0.7730104533627393 0
    outer loop
      vertex 17.40346410715657 11.396535892843431 3
      vertex 17.702748789786288 11.642152484297526 1.25
      vertex 17.40346410715657 11.396535892843431 1.25
    endloop
  endfacet
  facet normal -0.7730104533627373 0.6343932841636448 0
    outer loop
      vertex 17.157847515702475 11.097251210213715 3
      vertex 17.40346410715657 11.396535892843431 3
      vertex 17.157847515702475 11.097251210213715 1.25
    endloop
  endfacet
  facet normal -0.6343932841636427 0.7730104533627393 0
    outer loop
      vertex 17.40346410715657 11.396535892843431 3
      vertex 17.702748789786288 11.642152484297526 3
      vertex 17.702748789786288 11.642152484297526 1.25
    endloop
  endfacet
  facet normal 0.9951847266721968 0.09801714032956133 0
    outer loop
      vertex 20.775000000000002 10 3
      vertex 20.775000000000002 10 1.25
      vertex 20.737050928796382 10.385303385981853 1.25
    endloop
  endfacet
  facet normal 0.9569403357322086 0.29028467725446305 0
    outer loop
      vertex 20.737050928796382 10.385303385981853 3
      vertex 20.737050928796382 10.385303385981853 1.25
      vertex 20.624662076709793 10.755799778921052 1.25
    endloop
  endfacet
  facet normal 0.8819212643483536 0.4713967368260004 0
    outer loop
      vertex 20.624662076709793 10.755799778921052 3
      vertex 20.624662076709793 10.755799778921052 1.25
      vertex 20.442152484297527 11.097251210213715 1.25
    endloop
  endfacet
  facet normal 0 0 1
    outer loop
      vertex 18.04420022107895 8.175337923290208 3
      vertex 18.04420022107895 11.824662076709792 3
      vertex 17.702748789786288 11.642152484297526 3
    endloop
  endfacet
  facet normal 0 0 1
    outer loop
      vertex 18.414696614018148 8.06294907120362 3
      vertex 18.414696614018148 11.93705092879638 3
      vertex 18.04420022107895 11.824662076709792 3
    endloop
  endfacet
  facet normal 0 0 1
    outer loop
      vertex 18.8 8.025 3
      vertex 18.8 11.975 3
      vertex 18.414696614018148 11.93705092879638 3
    endloop
  endfacet
  facet normal 0 0 1
    outer loop
      vertex 19.185303385981854 8.06294907120362 3
      vertex 19.185303385981854 11.93705092879638 3
      vertex 18.8 11.975 3
    endloop
  endfacet
  facet normal 0.9951847266721968 0.09801714032956133 0
    outer loop
      vertex 20.775000000000002 10 3
      vertex 20.737050928796382 10.385303385981853 1.25
      vertex 20.737050928796382 10.385303385981853 3
    endloop
  endfacet
  facet normal 0 0 1
    outer loop
      vertex 20.196535892843432 8.603464107156569 3
      vertex 20.196535892843432 11.396535892843431 3
      vertex 19.897251210213714 11.642152484297526 3
    endloop
  endfacet
  facet normal 0 0 1
    outer loop
      vertex 20.737050928796382 9.614696614018147 3
      vertex 20.775000000000002 10 3
      vertex 20.737050928796382 10.385303385981853 3
    endloop
  endfacet
  facet normal 0 0 1
    outer loop
      vertex 20.737050928796382 9.614696614018147 3
      vertex 20.737050928796382 10.385303385981853 3
      vertex 20.624662076709793 10.755799778921052 3
    endloop
  endfacet
  facet normal 0 0 1
    outer loop
      vertex 20.624662076709793 9.244200221078948 3
      vertex 20.624662076709793 10.755799778921052 3
      vertex 20.442152484297527 11.097251210213715 3
    endloop
  endfacet
  facet normal 0 0 1
    outer loop
      vertex 20.442152484297527 8.902748789786285 3
      vertex 20.442152484297527 11.097251210213715 3
      vertex 20.196535892843432 11.396535892843431 3
    endloop
  endfacet
  facet normal 0.9569403357322086 0.29028467725446305 0
    outer loop
      vertex 20.737050928796382 10.385303385981853 3
      vertex 20.624662076709793 10.755799778921052 1.25
      vertex 20.624662076709793 10.755799778921052 3
    endloop
  endfacet
  facet normal 0.8819212643483536 0.4713967368260004 0
    outer loop
      vertex 20.624662076709793 10.755799778921052 3
      vertex 20.442152484297527 11.097251210213715 1.25
      vertex 20.442152484297527 11.097251210213715 3
    endloop
  endfacet
  facet normal 0 0 1
    outer loop
      vertex 19.555799778921052 8.175337923290208 3
      vertex 19.555799778921052 11.824662076709792 3
      vertex 19.185303385981854 11.93705092879638 3
    endloop
  endfacet
  facet normal 0 0 1
    outer loop
      vertex 19.897251210213714 8.357847515702474 3
      vertex 19.897251210213714 11.642152484297526 3
      vertex 19.555799778921052 11.824662076709792 3
    endloop
  endfacet
  facet normal -0.47139673682600225 0.8819212643483525 0
    outer loop
      vertex 17.702748789786288 11.642152484297526 3
      vertex 18.04420022107895 11.824662076709792 1.25
      vertex 17.702748789786288 11.642152484297526 1.25
    endloop
  endfacet
  facet normal -0.29028467725445883 0.9569403357322099 0
    outer loop
      vertex 18.04420022107895 11.824662076709792 3
      vertex 18.414696614018148 11.93705092879638 1.25
      vertex 18.04420022107895 11.824662076709792 1.25
    endloop
  endfacet
  facet normal -0.09801714032956133 0.9951847266721968 0
    outer loop
      vertex 18.414696614018148 11.93705092879638 3
      vertex 18.8 11.975 1.25
      vertex 18.414696614018148 11.93705092879638 1.25
    endloop
  endfacet
  facet normal 0.29028467725445883 0.9569403357322099 0
    outer loop
      vertex 19.185303385981854 11.93705092879638 3
      vertex 19.555799778921052 11.824662076709792 1.25
      vertex 19.185303385981854 11.93705092879638 1.25
    endloop
  endfacet
  facet normal 0.09801714032956133 0.9951847266721968 0
    outer loop
      vertex 18.8 11.975 3
      vertex 19.185303385981854 11.93705092879638 1.25
      vertex 18.8 11.975 1.25
    endloop
  endfacet
  facet normal 0.6343932841636427 0.7730104533627393 0
    outer loop
      vertex 19.897251210213714 11.642152484297526 3
      vertex 20.196535892843432 11.396535892843431 1.25
      vertex 19.897251210213714 11.642152484297526 1.25
    endloop
  endfacet
  facet normal 0.7730104533627373 0.6343932841636448 0
    outer loop
      vertex 20.442152484297527 11.097251210213715 3
      vertex 20.442152484297527 11.097251210213715 1.25
      vertex 20.196535892843432 11.396535892843431 1.25
    endloop
  endfacet
  facet normal 0.47139673682600225 0.8819212643483525 0
    outer loop
      vertex 19.555799778921052 11.824662076709792 3
      vertex 19.897251210213714 11.642152484297526 1.25
      vertex 19.555799778921052 11.824662076709792 1.25
    endloop
  endfacet
  facet normal -0.47139673682600225 0.8819212643483525 0
    outer loop
      vertex 17.702748789786288 11.642152484297526 3
      vertex 18.04420022107895 11.824662076709792 3
      vertex 18.04420022107895 11.824662076709792 1.25
    endloop
  endfacet
  facet normal -0.29028467725445883 0.9569403357322099 0
    outer loop
      vertex 18.04420022107895 11.824662076709792 3
      vertex 18.414696614018148 11.93705092879638 3
      vertex 18.414696614018148 11.93705092879638 1.25
    endloop
  endfacet
  facet normal -0.09801714032956133 0.9951847266721968 0
    outer loop
      vertex 18.414696614018148 11.93705092879638 3
      vertex 18.8 11.975 3
      vertex 18.8 11.975 1.25
    endloop
  endfacet
  facet normal 0.09801714032956133 0.9951847266721968 0
    outer loop
      vertex 18.8 11.975 3
      vertex 19.185303385981854 11.93705092879638 3
      vertex 19.185303385981854 11.93705092879638 1.25
    endloop
  endfacet
  facet normal 0.6343932841636427 0.7730104533627393 0
    outer loop
      vertex 20.196535892843432 11.396535892843431 3
      vertex 20.196535892843432 11.396535892843431 1.25
      vertex 19.897251210213714 11.642152484297526 3
    endloop
  endfacet
  facet normal 0.7730104533627373 0.6343932841636448 0
    outer loop
      vertex 20.442152484297527 11.097251210213715 3
      vertex 20.196535892843432 11.396535892843431 1.25
      vertex 20.196535892843432 11.396535892843431 3
    endloop
  endfacet
  facet normal 0.47139673682600225 0.8819212643483525 0
    outer loop
      vertex 19.897251210213714 11.642152484297526 3
      vertex 19.897251210213714 11.642152484297526 1.25
      vertex 19.555799778921052 11.824662076709792 3
    endloop
  endfacet
  facet normal 0.29028467725445883 0.9569403357322099 0
    outer loop
      vertex 19.555799778921052 11.824662076709792 3
      vertex 19.555799778921052 11.824662076709792 1.25
      vertex 19.185303385981854 11.93705092879638 3
    endloop
  endfacet
  facet normal 0 0 1
    outer loop
      vertex 7.7 7.8 1.25
      vertex 8.902748789786285 8.357847515702474 1.25
      vertex 8.603464107156569 8.603464107156569 1.25
    endloop
  endfacet
  facet normal 0 0 1
    outer loop
      vertex 7.7 7.8 1.25
      vertex 9.614696614018147 8.06294907120362 1.25
      vertex 9.244200221078948 8.175337923290208 1.25
    endloop
  endfacet
  facet normal 0 0 1
    outer loop
      vertex 7.7 7.8 1.25
      vertex 10 8.025 1.25
      vertex 9.614696614018147 8.06294907120362 1.25
    endloop
  endfacet
  facet normal 0 0 1
    outer loop
      vertex 7.7 7.8 1.25
      vertex 9.244200221078948 8.175337923290208 1.25
      vertex 8.902748789786285 8.357847515702474 1.25
    endloop
  endfacet
  facet normal 0 0 1
    outer loop
      vertex 7.7 7.8 1.25
      vertex 8.603464107156569 8.603464107156569 1.25
      vertex 8.357847515702474 8.902748789786285 1.25
    endloop
  endfacet
  facet normal 0 0 1
    outer loop
      vertex 7.7 7.8 1.25
      vertex 8.357847515702474 8.902748789786285 1.25
      vertex 8.175337923290208 9.244200221078948 1.25
    endloop
  endfacet
  facet normal 0 0 1
    outer loop
      vertex 7.7 7.8 1.25
      vertex 8.175337923290208 9.244200221078948 1.25
      vertex 8.06294907120362 9.614696614018147 1.25
    endloop
  endfacet
  facet normal -1 0 0
    outer loop
      vertex 7.7 7.8 0
      vertex 7.7 7.8 1.25
      vertex 7.7 12.2 1.25
    endloop
  endfacet
  facet normal 0 0 1
    outer loop
      vertex 7.7 7.8 1.25
      vertex 8.06294907120362 9.614696614018147 1.25
      vertex 8.025 10 1.25
    endloop
  endfacet
  facet normal 0 0 1
    outer loop
      vertex 7.7 7.8 1.25
      vertex 8.025 10 1.25
      vertex 8.06294907120362 10.385303385981853 1.25
    endloop
  endfacet
  facet normal 0 -1 0
    outer loop
      vertex 7.7 7.8 0
      vertex 21.1 7.8 1.25
      vertex 7.7 7.8 1.25
    endloop
  endfacet
  facet normal 0 0 1
    outer loop
      vertex 7.7 7.8 1.25
      vertex 21.1 7.8 1.25
      vertex 10 8.025 1.25
    endloop
  endfacet
  facet normal 0 0 1
    outer loop
      vertex 10.385303385981853 8.06294907120362 1.25
      vertex 18.414696614018148 8.06294907120362 1.25
      vertex 10.755799778921052 8.175337923290208 1.25
    endloop
  endfacet
  facet normal 0 0 1
    outer loop
      vertex 10.755799778921052 8.175337923290208 1.25
      vertex 18.04420022107895 8.175337923290208 1.25
      vertex 11.097251210213715 8.357847515702474 1.25
    endloop
  endfacet
  facet normal 0 0 1
    outer loop
      vertex 21.1 7.8 1.25
      vertex 10.385303385981853 8.06294907120362 1.25
      vertex 10 8.025 1.25
    endloop
  endfacet
  facet normal 0 0 1
    outer loop
      vertex 11.097251210213715 8.357847515702474 1.25
      vertex 17.40346410715657 8.603464107156569 1.25
      vertex 11.396535892843431 8.603464107156569 1.25
    endloop
  endfacet
  facet normal 0 0 1
    outer loop
      vertex 11.396535892843431 8.603464107156569 1.25
      vertex 17.40346410715657 8.603464107156569 1.25
      vertex 11.642152484297526 8.902748789786285 1.25
    endloop
  endfacet
  facet normal 0 0 1
    outer loop
      vertex 16.97533792329021 9.244200221078948 1.25
      vertex 11.824662076709792 9.244200221078948 1.25
      vertex 11.642152484297526 8.902748789786285 1.25
    endloop
  endfacet
  facet normal 0 0 1
    outer loop
      vertex 16.97533792329021 9.244200221078948 1.25
      vertex 11.93705092879638 9.614696614018147 1.25
      vertex 11.824662076709792 9.244200221078948 1.25
    endloop
  endfacet
  facet normal 0 0 1
    outer loop
      vertex 16.97533792329021 9.244200221078948 1.25
      vertex 11.975 10 1.25
      vertex 11.93705092879638 9.614696614018147 1.25
    endloop
  endfacet
  facet normal 0 0 1
    outer loop
      vertex 16.97533792329021 9.244200221078948 1.25
      vertex 11.93705092879638 10.385303385981853 1.25
      vertex 11.975 10 1.25
    endloop
  endfacet
  facet normal -1 0 0
    outer loop
      vertex 7.7 7.8 0
      vertex 7.7 12.2 1.25
      vertex 7.7 12.2 0
    endloop
  endfacet
  facet normal 0 0 1
    outer loop
      vertex 7.7 7.8 1.25
      vertex 8.06294907120362 10.385303385981853 1.25
      vertex 7.7 12.2 1.25
    endloop
  endfacet
  facet normal 0 0 1
    outer loop
      vertex 7.7 12.2 1.25
      vertex 8.06294907120362 10.385303385981853 1.25
      vertex 8.175337923290208 10.755799778921052 1.25
    endloop
  endfacet
  facet normal 0 0 1
    outer loop
      vertex 7.7 12.2 1.25
      vertex 8.175337923290208 10.755799778921052 1.25
      vertex 8.357847515702474 11.097251210213715 1.25
    endloop
  endfacet
  facet normal 0 0 1
    outer loop
      vertex 7.7 12.2 1.25
      vertex 8.357847515702474 11.097251210213715 1.25
      vertex 8.603464107156569 11.396535892843431 1.25
    endloop
  endfacet
  facet normal 0 0 1
    outer loop
      vertex 7.7 12.2 1.25
      vertex 8.603464107156569 11.396535892843431 1.25
      vertex 8.902748789786285 11.642152484297526 1.25
    endloop
  endfacet
  facet normal 0 0 1
    outer loop
      vertex 7.7 12.2 1.25
      vertex 8.902748789786285 11.642152484297526 1.25
      vertex 9.244200221078948 11.824662076709792 1.25
    endloop
  endfacet
  facet normal 0 0 1
    outer loop
      vertex 7.7 12.2 1.25
      vertex 9.244200221078948 11.824662076709792 1.25
      vertex 9.614696614018147 11.93705092879638 1.25
    endloop
  endfacet
  facet normal 0 0 1
    outer loop
      vertex 7.7 12.2 1.25
      vertex 9.614696614018147 11.93705092879638 1.25
      vertex 10 11.975 1.25
    endloop
  endfacet
  facet normal 0 0 -1
    outer loop
      vertex 7.7 7.8 0
      vertex 7.7 12.2 0
      vertex 21.1 12.2 0
    endloop
  endfacet
  facet normal 0 0 1
    outer loop
      vertex 16.97533792329021 9.244200221078948 1.25
      vertex 11.824662076709792 10.755799778921052 1.25
      vertex 11.93705092879638 10.385303385981853 1.25
    endloop
  endfacet
  facet normal 0 0 1
    outer loop
      vertex 11.824662076709792 10.755799778921052 1.25
      vertex 17.157847515702475 11.097251210213715 1.25
      vertex 11.642152484297526 11.097251210213715 1.25
    endloop
  endfacet
  facet normal 0 1 0
    outer loop
      vertex 7.7 12.2 0
      vertex 7.7 12.2 1.25
      vertex 21.1 12.2 0
    endloop
  endfacet
  facet normal 0 0 1
    outer loop
      vertex 11.642152484297526 11.097251210213715 1.25
      vertex 17.157847515702475 11.097251210213715 1.25
      vertex 11.396535892843431 11.396535892843431 1.25
    endloop
  endfacet
  facet normal 0 0 1
    outer loop
      vertex 11.097251210213715 11.642152484297526 1.25
      vertex 11.396535892843431 11.396535892843431 1.25
      vertex 17.40346410715657 11.396535892843431 1.25
    endloop
  endfacet
  facet normal 0 0 1
    outer loop
      vertex 10.385303385981853 11.93705092879638 1.25
      vertex 10.755799778921052 11.824662076709792 1.25
      vertex 18.04420022107895 11.824662076709792 1.25
    endloop
  endfacet
  facet normal 0 0 1
    outer loop
      vertex 11.097251210213715 11.642152484297526 1.25
      vertex 18.04420022107895 11.824662076709792 1.25
      vertex 10.755799778921052 11.824662076709792 1.25
    endloop
  endfacet
  facet normal 0 0 1
    outer loop
      vertex 7.7 12.2 1.25
      vertex 10 11.975 1.25
      vertex 21.1 12.2 1.25
    endloop
  endfacet
  facet normal 0 0 1
    outer loop
      vertex 21.1 12.2 1.25
      vertex 10 11.975 1.25
      vertex 10.385303385981853 11.93705092879638 1.25
    endloop
  endfacet
  facet normal 0 -1 0
    outer loop
      vertex 7.7 7.8 0
      vertex 21.1 7.8 0
      vertex 21.1 7.8 1.25
    endloop
  endfacet
  facet normal 0 0 1
    outer loop
      vertex 10.385303385981853 8.06294907120362 1.25
      vertex 18.8 8.025 1.25
      vertex 18.414696614018148 8.06294907120362 1.25
    endloop
  endfacet
  facet normal 0 0 1
    outer loop
      vertex 11.097251210213715 8.357847515702474 1.25
      vertex 18.04420022107895 8.175337923290208 1.25
      vertex 17.702748789786288 8.357847515702474 1.25
    endloop
  endfacet
  facet normal 0 0 1
    outer loop
      vertex 10.755799778921052 8.175337923290208 1.25
      vertex 18.414696614018148 8.06294907120362 1.25
      vertex 18.04420022107895 8.175337923290208 1.25
    endloop
  endfacet
  facet normal 0 0 1
    outer loop
      vertex 11.097251210213715 8.357847515702474 1.25
      vertex 17.702748789786288 8.357847515702474 1.25
      vertex 17.40346410715657 8.603464107156569 1.25
    endloop
  endfacet
  facet normal 0 0 1
    outer loop
      vertex 11.642152484297526 8.902748789786285 1.25
      vertex 17.40346410715657 8.603464107156569 1.25
      vertex 17.157847515702475 8.902748789786285 1.25
    endloop
  endfacet
  facet normal 0 0 1
    outer loop
      vertex 21.1 7.8 1.25
      vertex 18.8 8.025 1.25
      vertex 10.385303385981853 8.06294907120362 1.25
    endloop
  endfacet
  facet normal 0 0 -1
    outer loop
      vertex 7.7 7.8 0
      vertex 21.1 12.2 0
      vertex 21.1 7.8 0
    endloop
  endfacet
  facet normal 0 0 1
    outer loop
      vertex 16.97533792329021 9.244200221078948 1.25
      vertex 11.642152484297526 8.902748789786285 1.25
      vertex 17.157847515702475 8.902748789786285 1.25
    endloop
  endfacet
  facet normal 0 0 1
    outer loop
      vertex 11.824662076709792 10.755799778921052 1.25
      vertex 16.97533792329021 9.244200221078948 1.25
      vertex 16.86294907120362 9.614696614018147 1.25
    endloop
  endfacet
  facet normal 0 0 1
    outer loop
      vertex 21.1 7.8 1.25
      vertex 19.185303385981854 8.06294907120362 1.25
      vertex 18.8 8.025 1.25
    endloop
  endfacet
  facet normal 0 0 1
    outer loop
      vertex 21.1 7.8 1.25
      vertex 19.555799778921052 8.175337923290208 1.25
      vertex 19.185303385981854 8.06294907120362 1.25
    endloop
  endfacet
  facet normal 0 0 1
    outer loop
      vertex 21.1 7.8 1.25
      vertex 19.897251210213714 8.357847515702474 1.25
      vertex 19.555799778921052 8.175337923290208 1.25
    endloop
  endfacet
  facet normal 0 0 1
    outer loop
      vertex 21.1 7.8 1.25
      vertex 20.196535892843432 8.603464107156569 1.25
      vertex 19.897251210213714 8.357847515702474 1.25
    endloop
  endfacet
  facet normal 0 0 1
    outer loop
      vertex 21.1 7.8 1.25
      vertex 20.442152484297527 8.902748789786285 1.25
      vertex 20.196535892843432 8.603464107156569 1.25
    endloop
  endfacet
  facet normal 0 0 1
    outer loop
      vertex 21.1 7.8 1.25
      vertex 20.624662076709793 9.244200221078948 1.25
      vertex 20.442152484297527 8.902748789786285 1.25
    endloop
  endfacet
  facet normal 0 0 1
    outer loop
      vertex 21.1 7.8 1.25
      vertex 20.737050928796382 9.614696614018147 1.25
      vertex 20.624662076709793 9.244200221078948 1.25
    endloop
  endfacet
  facet normal 1 0 0
    outer loop
      vertex 21.1 7.8 0
      vertex 21.1 12.2 0
      vertex 21.1 7.8 1.25
    endloop
  endfacet
  facet normal 0 0 1
    outer loop
      vertex 21.1 7.8 1.25
      vertex 21.1 12.2 1.25
      vertex 20.737050928796382 9.614696614018147 1.25
    endloop
  endfacet
  facet normal 0 0 1
    outer loop
      vertex 11.824662076709792 10.755799778921052 1.25
      vertex 16.86294907120362 9.614696614018147 1.25
      vertex 16.825 10 1.25
    endloop
  endfacet
  facet normal 0 0 1
    outer loop
      vertex 11.824662076709792 10.755799778921052 1.25
      vertex 16.825 10 1.25
      vertex 16.86294907120362 10.385303385981853 1.25
    endloop
  endfacet
  facet normal 0 0 1
    outer loop
      vertex 11.824662076709792 10.755799778921052 1.25
      vertex 16.86294907120362 10.385303385981853 1.25
      vertex 16.97533792329021 10.755799778921052 1.25
    endloop
  endfacet
  facet normal 0 0 1
    outer loop
      vertex 11.824662076709792 10.755799778921052 1.25
      vertex 16.97533792329021 10.755799778921052 1.25
      vertex 17.157847515702475 11.097251210213715 1.25
    endloop
  endfacet
  facet normal 0 0 1
    outer loop
      vertex 11.396535892843431 11.396535892843431 1.25
      vertex 17.157847515702475 11.097251210213715 1.25
      vertex 17.40346410715657 11.396535892843431 1.25
    endloop
  endfacet
  facet normal 0 0 1
    outer loop
      vertex 11.097251210213715 11.642152484297526 1.25
      vertex 17.40346410715657 11.396535892843431 1.25
      vertex 17.702748789786288 11.642152484297526 1.25
    endloop
  endfacet
  facet normal 0 0 1
    outer loop
      vertex 11.097251210213715 11.642152484297526 1.25
      vertex 17.702748789786288 11.642152484297526 1.25
      vertex 18.04420022107895 11.824662076709792 1.25
    endloop
  endfacet
  facet normal 0 0 1
    outer loop
      vertex 10.385303385981853 11.93705092879638 1.25
      vertex 18.04420022107895 11.824662076709792 1.25
      vertex 18.414696614018148 11.93705092879638 1.25
    endloop
  endfacet
  facet normal 0 0 1
    outer loop
      vertex 10.385303385981853 11.93705092879638 1.25
      vertex 18.414696614018148 11.93705092879638 1.25
      vertex 18.8 11.975 1.25
    endloop
  endfacet
  facet normal 0 1 0
    outer loop
      vertex 7.7 12.2 1.25
      vertex 21.1 12.2 1.25
      vertex 21.1 12.2 0
    endloop
  endfacet
  facet normal 0 0 1
    outer loop
      vertex 21.1 12.2 1.25
      vertex 10.385303385981853 11.93705092879638 1.25
      vertex 18.8 11.975 1.25
    endloop
  endfacet
  facet normal 1 0 0
    outer loop
      vertex 21.1 7.8 1.25
      vertex 21.1 12.2 0
      vertex 21.1 12.2 1.25
    endloop
  endfacet
  facet normal 0 0 1
    outer loop
      vertex 21.1 12.2 1.25
      vertex 20.775000000000002 10 1.25
      vertex 20.737050928796382 9.614696614018147 1.25
    endloop
  endfacet
  facet normal 0 0 1
    outer loop
      vertex 21.1 12.2 1.25
      vertex 20.737050928796382 10.385303385981853 1.25
      vertex 20.775000000000002 10 1.25
    endloop
  endfacet
  facet normal 0 0 1
    outer loop
      vertex 21.1 12.2 1.25
      vertex 20.624662076709793 10.755799778921052 1.25
      vertex 20.737050928796382 10.385303385981853 1.25
    endloop
  endfacet
  facet normal 0 0 1
    outer loop
      vertex 21.1 12.2 1.25
      vertex 20.442152484297527 11.097251210213715 1.25
      vertex 20.624662076709793 10.755799778921052 1.25
    endloop
  endfacet
  facet normal 0 0 1
    outer loop
      vertex 21.1 12.2 1.25
      vertex 20.196535892843432 11.396535892843431 1.25
      vertex 20.442152484297527 11.097251210213715 1.25
    endloop
  endfacet
  facet normal 0 0 1
    outer loop
      vertex 21.1 12.2 1.25
      vertex 19.555799778921052 11.824662076709792 1.25
      vertex 19.897251210213714 11.642152484297526 1.25
    endloop
  endfacet
  facet normal 0 0 1
    outer loop
      vertex 21.1 12.2 1.25
      vertex 18.8 11.975 1.25
      vertex 19.185303385981854 11.93705092879638 1.25
    endloop
  endfacet
  facet normal 0 0 1
    outer loop
      vertex 21.1 12.2 1.25
      vertex 19.185303385981854 11.93705092879638 1.25
      vertex 19.555799778921052 11.824662076709792 1.25
    endloop
  endfacet
  facet normal 0 0 1
    outer loop
      vertex 21.1 12.2 1.25
      vertex 19.897251210213714 11.642152484297526 1.25
      vertex 20.196535892843432 11.396535892843431 1.25
    endloop
  endfacet
endsolid OpenSCAD_Model
